<svg width="432" height="316" viewBox="0 0 432 316" fill="none" xmlns="http://www.w3.org/2000/svg">
<path fill-rule="evenodd" clip-rule="evenodd" d="M395.496 95.6564C382.371 63.5317 358.827 39.7972 312.628 38.6685C271.909 37.6743 223.335 65.7916 201.066 78.823C178.801 91.8545 150.506 89.6885 131.009 86.4243C102.176 81.6003 76.7024 86.4344 55.2645 105.505C31.9519 126.241 21.3255 162.65 35.0391 204.339C53.8388 261.492 88.7366 271.188 152.698 285.751C197.121 295.866 294.557 296.667 353.482 250.05C402.789 211.047 411.246 134.21 395.496 95.6564Z" fill="#F5EEE7"/>
<path fill-rule="evenodd" clip-rule="evenodd" d="M308.902 90.4192C313.341 89.2348 321.147 87.0054 324.597 83.1807C332.539 74.362 326.157 58.221 319.609 45.6512C312.027 31.098 304.947 23.8391 294.991 28.7189C279.671 22.1626 268.974 30.4436 263.916 44.1041C259.266 56.6612 256.889 81.9049 264.172 90.0185C270.884 97.4955 286.201 94.6244 286.201 94.6244L308.902 90.4192Z" fill="#323438"/>
<path fill-rule="evenodd" clip-rule="evenodd" d="M120.507 196.069C119.787 195.99 89.0798 195.673 89.0798 195.673C89.0798 195.673 79.4834 197.558 76.5915 201.786C73.7047 206.016 71.6043 209.207 71.7514 213.78C71.9011 218.355 73.4333 256.778 73.4333 256.778L88.1184 275.802L120.507 196.069Z" fill="#2E2E2E"/>
<path fill-rule="evenodd" clip-rule="evenodd" d="M74.2072 276.788C73.8495 276.788 73.5527 276.507 73.5375 276.146L71.0743 214.385V214.373C71.0743 209.194 73.0961 204.342 76.7693 200.71C80.4273 197.093 85.3054 195.099 90.5032 195.099H112.778C113.149 195.099 113.448 195.399 113.448 195.769C113.448 196.139 113.149 196.439 112.778 196.439H90.5032C80.5313 196.439 72.4188 204.476 72.4112 214.36L74.8769 276.093C74.8921 276.463 74.6029 276.773 74.2351 276.788H74.2072Z" fill="#2E2E2E"/>
<path fill-rule="evenodd" clip-rule="evenodd" d="M81.3685 276.68C81.0692 276.68 80.8206 276.445 80.8079 276.143L78.3447 214.384V214.374C78.3447 203.722 87.0102 195.058 97.6619 195.058H116.018C116.327 195.058 116.578 195.309 116.578 195.621C116.578 195.93 116.327 196.181 116.018 196.181H97.6619C87.6317 196.181 79.471 204.335 79.466 214.361L81.9317 276.097C81.9443 276.407 81.7008 276.668 81.3913 276.68H81.3685Z" fill="white"/>
<path fill-rule="evenodd" clip-rule="evenodd" d="M242.714 259.076H297.243C344.751 259.076 383.264 220.57 383.264 173.068C383.264 131.364 353.577 96.594 314.179 88.729C313.035 88.5007 310.064 90.6007 308.902 90.4181C304.511 89.7283 301.827 87.0626 297.243 87.0626L284.849 95.128L273.013 94.1718L255.24 96.9237C223.374 100.873 226.836 88.4576 223.572 89.2007C185.277 97.9103 156.693 132.148 156.693 173.068C156.693 220.57 195.203 259.076 242.714 259.076Z" fill="white"/>
<path fill-rule="evenodd" clip-rule="evenodd" d="M306.429 187.363C306.429 187.363 306.181 188.093 303.015 188.083C299.849 188.073 298.005 188.393 295.481 187.723C292.954 187.051 290.762 186.965 288.5 185.704C286.234 184.446 283.04 181.4 282.546 179.96C282.051 178.516 283.172 172.543 284.697 169.056C286.219 165.571 289.466 162.485 291.31 163.486C293.154 164.488 301.772 173.505 302.254 173.905C302.736 174.309 305.3 175.311 305.3 175.311L306.429 187.363Z" fill="white"/>
<path fill-rule="evenodd" clip-rule="evenodd" d="M288.781 104.046C288.692 103.992 288.218 103.909 285.836 104.621C283.454 105.331 277.034 109.263 275.144 110.604C273.256 111.949 266.674 117.49 265.474 118.736C264.274 119.984 255.837 129.649 255.608 129.913C255.383 130.174 249.173 136.728 249.173 136.728L241.786 104.469L219.638 107.416L222.984 133.269C222.984 133.269 224.648 147.076 224.97 147.695C225.294 148.314 227.915 158.989 228.435 160.141C228.952 161.292 231.608 166.332 234.584 168.457C237.557 170.58 242.227 171.199 244.064 170.844C245.903 170.489 249.302 169.177 249.302 169.177L255.674 166.456L260.446 164.369L331.459 169.297L339.072 168.561L359.695 142.666C359.695 142.666 350.703 119.733 345.079 114.878C339.455 110.021 335.257 104.251 329.032 101.725C322.804 99.1987 315.095 96.6827 311.982 97.261C307.145 101.246 300.331 104.198 297.244 104.654C294.157 105.108 291.912 105.286 290.709 105.129C289.507 104.971 288.781 104.046 288.781 104.046Z" fill="#F1A53B"/>
<path fill-rule="evenodd" clip-rule="evenodd" d="M252.99 135.33C255.088 133.459 256.785 131.899 259.094 129.378C263.662 124.389 267.901 118.231 278.802 110.997C280.631 109.782 287.234 106.1 289.864 105.128C289.314 104.811 288.238 104.045 288.238 104.045C288.147 103.992 287.675 103.908 285.291 104.621C282.911 105.331 276.491 109.262 274.601 110.604C272.711 111.948 266.131 117.49 264.931 118.738C263.728 119.983 254.675 130.55 254.446 130.813C254.34 130.938 250.601 136.573 249.102 138.156C249.102 138.156 250.745 137.334 252.99 135.33Z" fill="white"/>
<path fill-rule="evenodd" clip-rule="evenodd" d="M238.238 168.456C235.265 166.333 232.672 161.263 232.089 160.142C229.902 155.922 228.761 148.381 228.626 147.694C225.871 133.468 223.223 106.867 223.223 106.867L219.638 107.418C219.638 107.418 221.975 127.277 222.964 133.869C223.961 140.476 227.37 158.991 227.89 160.142C228.41 161.294 231.066 166.333 234.039 168.456C237.012 170.579 241.683 171.2 243.519 170.843C243.699 170.81 243.897 170.764 244.105 170.713C242.154 170.379 239.925 169.661 238.238 168.456Z" fill="white"/>
<path fill-rule="evenodd" clip-rule="evenodd" d="M221.093 106.63C220.994 106.526 221.347 103.987 220.327 102.077C219.31 100.168 218.582 98.4531 217.618 97.0252C216.651 95.5947 215.332 92.0845 215.162 90.5424C214.995 88.9978 214.931 85.9746 217.247 85.5713C219.566 85.168 220.327 86.3854 220.327 86.3854C221.359 84.2144 221.806 84.0723 222.775 84.1408C223.741 84.2093 225.246 84.5695 225.586 85.4394C226.714 83.4611 226.889 82.7509 228.886 83.0756C230.882 83.4028 231.821 84.8637 231.821 84.8637C231.664 81.8404 231.514 77.5642 231.821 76.0247C232.125 74.4852 232.346 71.7739 234.522 72.0047C236.699 72.2329 237.858 73.9069 237.975 75.804C238.089 77.7037 238.556 85.5713 238.556 85.5713L239.073 91.5366C239.073 91.5366 239.527 92.1403 240.032 91.5493C240.537 90.9584 243.726 87.2097 245.096 86.601C246.465 85.9923 248.944 85.9796 249.71 87.3086C250.476 88.6402 249.182 91.2145 248.079 92.2443C246.975 93.2715 243.234 99.1125 242.764 99.8962C242.298 100.68 239.855 104.411 239.855 104.411L221.093 106.63Z" fill="white"/>
<path fill-rule="evenodd" clip-rule="evenodd" d="M264.383 143.386C263.926 143.523 261.407 145.821 260.867 146.422C259.393 146.516 258.812 146.483 258.231 147.445C257.65 148.406 258.746 153.062 258.746 153.062C258.746 153.062 263.548 179.229 263.597 179.323C263.647 179.417 263.452 180.117 265.616 180.16C267.782 180.198 309.811 180.802 309.811 180.802L326.259 169.203C326.259 169.203 327.208 168.369 327 167.233C326.794 166.096 321.355 137.315 321.355 137.315C321.355 137.315 321.896 135.691 320.734 135.552C319.572 135.41 318.035 135.78 318.035 135.78C318.035 135.78 315.475 134.436 314.138 134.629C312.807 134.821 312.599 134.905 312.599 134.905L289.491 143.988L264.383 143.386Z" fill="white"/>
<path fill-rule="evenodd" clip-rule="evenodd" d="M288.86 86.8029C290.611 85.7858 291.321 84.467 291.326 82.8995C291.329 81.7024 291.126 81.1343 290.563 81.0303C289.855 80.9009 288.597 81.9155 286.58 83.1938C285.109 84.1246 282.724 84.9007 283.013 86.146C283.262 87.2163 286.08 88.421 288.86 86.8029Z" fill="#2E2E2E"/>
<path fill-rule="evenodd" clip-rule="evenodd" d="M291.19 83.6004C289.622 82.9942 286.363 84.0595 287.05 87.2222C289.102 86.7632 291.061 84.5414 291.19 83.6004Z" fill="white"/>
<path fill-rule="evenodd" clip-rule="evenodd" d="M290.352 81.4369C290.009 81.4369 289.028 82.0862 288.157 82.6619C287.764 82.9206 287.323 83.2123 286.841 83.5166C286.448 83.7652 285.999 84.0011 285.562 84.2293C284.664 84.7011 283.429 85.3478 283.541 85.8221C283.574 85.9591 283.822 86.2507 284.378 86.4892C285.329 86.9 286.912 87.0116 288.495 86.091C289.966 85.2362 290.654 84.1608 290.656 82.7101C290.659 81.934 290.562 81.4724 290.392 81.4394C290.38 81.4369 290.367 81.4369 290.352 81.4369ZM285.996 88.0109C284.976 88.0109 284.213 87.7395 283.896 87.6026C283.059 87.2399 282.498 86.692 282.361 86.096C282.039 84.7112 283.612 83.8844 285.002 83.1565C285.415 82.9409 285.841 82.7151 286.192 82.4945C286.666 82.1952 287.102 81.9061 287.488 81.6499C288.946 80.6861 289.827 80.1053 290.611 80.2473C291.876 80.4807 291.871 82.0456 291.869 82.7151C291.864 84.5869 290.933 86.0757 289.104 87.141C287.952 87.808 286.876 88.0109 285.996 88.0109Z" fill="#2E2E2E"/>
<path fill-rule="evenodd" clip-rule="evenodd" d="M286.426 87.5782C285.84 86.1173 286.121 84.7249 287.197 83.7509C288.364 82.6958 290.2 82.3991 291.469 83.0636L290.908 84.1365C290.094 83.7104 288.795 83.9412 288.009 84.6488C287.524 85.0901 287.047 85.8763 287.549 87.1267L286.426 87.5782Z" fill="#2E2E2E"/>
<path fill-rule="evenodd" clip-rule="evenodd" d="M304.487 75.8579C304.045 75.8579 303.604 75.8046 303.17 75.6981C302.848 75.6195 302.645 75.2898 302.726 74.9651C302.805 74.6405 303.135 74.4426 303.459 74.5213C304.091 74.676 304.738 74.6861 305.382 74.5542C306.524 74.3158 307.503 73.6488 308.145 72.6749C308.784 71.6984 309.007 70.5317 308.769 69.3904C308.282 67.0316 305.966 65.5098 303.607 65.9993C303.015 66.1236 302.468 66.3595 301.981 66.7044C301.704 66.8972 301.329 66.8312 301.136 66.5573C300.943 66.2834 301.006 65.9055 301.28 65.7127C301.904 65.2714 302.607 64.9696 303.363 64.8124C304.822 64.5105 306.311 64.7946 307.556 65.6113C308.802 66.4305 309.654 67.686 309.956 69.1443C310.26 70.6027 309.976 72.094 309.159 73.3394C308.34 74.5847 307.084 75.4369 305.626 75.7412C305.248 75.8173 304.865 75.8579 304.487 75.8579Z" fill="#2E2E2E"/>
<path fill-rule="evenodd" clip-rule="evenodd" d="M306.888 70.2217C306.607 70.2217 306.35 70.0188 306.295 69.7322C306.208 69.296 306 68.7126 305.483 68.4058C305.031 68.1344 304.392 68.1115 303.641 68.3449C303.321 68.4438 302.982 68.2663 302.883 67.9467C302.784 67.6271 302.964 67.2873 303.283 67.1883C304.372 66.851 305.348 66.9119 306.107 67.3659C306.82 67.792 307.294 68.53 307.484 69.4989C307.548 69.8286 307.335 70.1457 307.005 70.2091C306.964 70.2192 306.929 70.2217 306.888 70.2217Z" fill="#2E2E2E"/>
<path fill-rule="evenodd" clip-rule="evenodd" d="M275.712 72.2738C275.925 73.296 275.61 74.2293 275.009 74.3536C274.405 74.4779 273.748 73.7474 273.538 72.7253C273.325 71.7006 273.639 70.7698 274.24 70.6455C274.839 70.5213 275.499 71.2492 275.712 72.2738Z" fill="#2E2E2E"/>
<path fill-rule="evenodd" clip-rule="evenodd" d="M269.835 68.9264C269.705 68.9264 269.576 68.8858 269.467 68.8047C269.201 68.6017 269.147 68.2213 269.353 67.955C270.885 65.931 273.566 64.5868 276.179 64.531H276.192C276.522 64.531 276.791 64.7922 276.796 65.122C276.803 65.4568 276.539 65.7332 276.205 65.7408C273.982 65.7915 271.616 66.9735 270.317 68.6854C270.2 68.8427 270.017 68.9264 269.835 68.9264Z" fill="#2E2E2E"/>
<path fill-rule="evenodd" clip-rule="evenodd" d="M289.037 69.512C289.25 70.5367 289.909 71.2646 290.51 71.1403C291.109 71.016 291.424 70.0852 291.213 69.0606C291 68.0359 290.343 67.308 289.739 67.4323C289.141 67.5566 288.826 68.4874 289.037 69.512Z" fill="#2E2E2E"/>
<path fill-rule="evenodd" clip-rule="evenodd" d="M285.747 64.2525C285.537 64.2525 285.331 64.1434 285.22 63.9456C285.057 63.6539 285.159 63.2836 285.451 63.1188C287.995 61.6832 291.44 61.6097 293.835 62.9438C294.126 63.1061 294.233 63.4764 294.068 63.7681C293.906 64.0597 293.535 64.1637 293.243 64.0014C291.199 62.8651 288.241 62.9336 286.044 64.1739C285.95 64.2271 285.849 64.2525 285.747 64.2525Z" fill="#2E2E2E"/>
<path fill-rule="evenodd" clip-rule="evenodd" d="M281.07 80.0128C280.707 80.0128 280.329 79.9444 279.981 79.7364C279.489 79.4396 279.159 78.9298 279.002 78.2171C278.721 76.9465 279.411 75.6809 280.141 74.4939C280.821 73.3855 281.295 72.3456 280.651 69.9184C280.567 69.5938 280.758 69.2615 281.082 69.1778C281.407 69.0916 281.737 69.2843 281.823 69.6064C282.587 72.4902 281.952 73.8649 281.171 75.1305C280.572 76.1044 280.002 77.1265 280.184 77.9559C280.268 78.3287 280.41 78.5798 280.605 78.6965C280.976 78.9172 281.62 78.7396 282.003 78.6306L282.051 78.6179C282.373 78.5291 282.708 78.7168 282.8 79.0389C282.888 79.3635 282.698 79.6958 282.376 79.7871L282.33 79.7998C282.021 79.8835 281.559 80.0128 281.07 80.0128Z" fill="#2E2E2E"/>
<path fill-rule="evenodd" clip-rule="evenodd" d="M221.025 107.71C220.667 107.71 220.371 107.429 220.355 107.068C220.274 104.994 219.409 101.501 218.255 99.6066C216.124 96.1091 214.792 91.838 214.564 90.0499C214.214 87.3361 215.153 85.5023 217.202 84.8835C217.92 84.6679 218.701 84.7643 219.404 85.1549C220.155 85.5733 220.749 86.3013 220.946 87.0495L220.954 87.0723L221.814 90.8159C222.121 92.0333 222.775 92.9945 223.615 93.4561C224.067 93.7072 224.536 93.7732 224.927 93.6438C225.992 93.2938 226.588 92.6927 226.274 90.7753C226.215 90.41 226.461 90.0676 226.827 90.0068C227.192 89.9484 227.534 90.1945 227.595 90.5597C227.973 92.8677 227.238 94.2931 225.345 94.917C224.594 95.1631 223.752 95.0591 222.968 94.6279C221.806 93.9887 220.911 92.7155 220.513 91.1354L220.51 91.1227L219.65 87.3843C219.539 86.981 219.189 86.5676 218.752 86.3241C218.483 86.1719 218.06 86.0223 217.59 86.1643C216.2 86.5828 215.63 87.8332 215.893 89.88C216.106 91.5539 217.37 95.579 219.397 98.9091C220.703 101.05 221.606 104.783 221.695 107.015C221.71 107.383 221.421 107.695 221.053 107.71C221.043 107.71 221.033 107.71 221.025 107.71Z" fill="#2E2E2E"/>
<path fill-rule="evenodd" clip-rule="evenodd" d="M240.273 104.902C240.164 104.902 240.057 104.874 239.953 104.821C239.631 104.646 239.509 104.238 239.685 103.916C239.849 103.609 243.771 96.3853 246.683 92.9588C248.487 90.8384 249.4 88.5431 248.911 87.3815C248.832 87.1963 248.596 86.6358 247.411 86.5546C245.301 86.4101 242.653 89.5094 240.72 91.7718L240.539 91.9823C239.961 92.6595 239.395 92.5758 239.177 92.5098C238.959 92.4439 238.442 92.1928 238.338 91.3076C237.927 87.8076 237.845 84.868 237.777 82.2734C237.713 79.9172 237.658 77.8831 237.358 76.1558C237.089 74.5935 236.552 73.4978 235.806 72.988C235.238 72.6025 234.682 72.638 234.401 72.6964C232.896 73.0007 232.711 73.8504 232.577 77.353C232.485 79.6889 232.643 81.7255 232.757 83.2143C232.838 84.2796 232.896 85.0531 232.84 85.5629C232.792 86.0068 232.48 86.2274 232.191 86.2503C231.907 86.2731 231.562 86.1082 231.448 85.6898C231.176 84.6955 229.916 83.6125 228.759 83.7571C227.374 83.9321 226.702 84.6169 226.567 85.9789C226.534 86.3111 226.298 86.5749 225.971 86.6358C225.649 86.6967 225.329 86.5394 225.177 86.2427C224.665 85.2358 223.706 84.66 222.792 84.8147C221.844 84.972 221.187 85.8597 220.991 87.247C220.938 87.6123 220.601 87.8684 220.233 87.8152C219.868 87.7644 219.614 87.4271 219.662 87.0594C219.944 85.0836 221.029 83.752 222.572 83.4933C223.647 83.3133 224.738 83.7115 225.557 84.518C226.057 83.3335 227.087 82.6208 228.591 82.4281C229.637 82.2987 230.649 82.7096 231.425 83.3665C231.422 83.3513 231.422 83.3335 231.42 83.3158C231.303 81.7966 231.146 79.7168 231.24 77.2997C231.359 74.1826 231.445 71.9279 234.137 71.3851C234.624 71.2862 235.588 71.2202 236.562 71.8847C237.625 72.6127 238.34 73.9721 238.68 75.925C238.995 77.7512 239.05 79.8284 239.114 82.2379C239.182 84.7589 239.258 87.6097 239.644 90.9703L239.702 90.9044C241.937 88.2869 244.715 85.0303 247.503 85.2205C249.162 85.3321 249.854 86.1742 250.143 86.8615C250.854 88.5456 249.92 91.2163 247.703 93.8262C244.882 97.1462 240.902 104.476 240.864 104.55C240.742 104.775 240.512 104.902 240.273 104.902Z" fill="#2E2E2E"/>
<path fill-rule="evenodd" clip-rule="evenodd" d="M229.946 94.438C227.379 94.438 226.491 91.9752 225.959 89.5531C225.771 88.6933 225.2 86.1215 225.2 86.1215L226.509 85.8298C226.509 85.8298 227.075 88.4067 227.265 89.2665C228.057 92.8655 229.114 93.1293 230.048 93.0963C230.291 93.0887 230.527 92.9416 230.758 92.6626C231.491 91.7698 232.136 89.406 231.539 85.6776C231.479 85.3124 231.73 84.97 232.095 84.9117C232.458 84.8534 232.803 85.1019 232.861 85.4671C233.419 88.9469 233.011 92.031 231.793 93.5122C231.316 94.093 230.73 94.4126 230.099 94.4354C230.048 94.438 229.997 94.438 229.946 94.438Z" fill="#2E2E2E"/>
<path fill-rule="evenodd" clip-rule="evenodd" d="M218.766 95.8732C218.479 95.8732 218.19 95.8276 217.911 95.7363C216.701 95.3406 215.737 94.1536 215.049 92.2108C214.925 91.8608 215.11 91.4804 215.455 91.3561C215.805 91.2318 216.186 91.417 216.31 91.7645C216.985 93.6717 217.779 94.2855 218.327 94.4656C218.91 94.6558 219.428 94.425 219.763 94.1968C220.108 93.9634 220.841 93.058 220.189 89.7253C220.118 89.3626 220.354 89.01 220.719 88.939C221.079 88.868 221.432 89.1064 221.503 89.4691C222.094 92.4924 221.764 94.4555 220.514 95.3026C219.961 95.6805 219.359 95.8732 218.766 95.8732Z" fill="#2E2E2E"/>
<path fill-rule="evenodd" clip-rule="evenodd" d="M333.119 151.185L339.073 168.564L305.162 171.835C305.715 177.111 306.253 185.417 306.649 190.152L343.18 189.184C356.059 188.154 359.874 187.543 363.484 184.03C369.907 177.78 366.891 164.12 363.066 152.326C359.177 140.352 351.501 119.372 339.294 108.7C335.4 105.296 328.191 99.2417 312.486 96.7358L333.119 151.185Z" fill="#F1A53B"/>
<path fill-rule="evenodd" clip-rule="evenodd" d="M287.558 93.904C287.619 95.5424 289.88 100.884 288.238 104.047C283.639 106.56 271.336 114.161 273.36 114.927C280.174 117.507 297.713 116.657 301.178 115.944C320.323 112.013 328.653 104.501 330.779 102.948C332.309 101.838 318.367 97.645 312.847 96.8157C312.119 96.5062 310.08 94.4747 309.577 93.1507C309.012 91.6721 307.046 85.098 307.046 85.098C307.046 85.098 311.206 79.7794 311.83 72.6119C312.066 69.9056 312.129 68.1962 312.129 68.1962C312.129 68.1962 318.489 67.1335 319.501 64.9979C320.511 62.8573 320.341 61.4496 318.925 59.55C317.515 57.6503 317.543 56.3466 312.566 56.0676C308.007 50.6298 299.501 50.2951 296.404 45.2174C286.927 60.5036 269.981 63.6334 269.981 63.6334C269.981 63.6334 265.956 62.5504 264.867 69.0433C264.454 71.5187 266.836 74.6764 269.162 75.384C271.491 76.0891 274.494 74.7652 274.494 74.7652C274.494 74.7652 276.676 81.286 278.406 83.1096C280.136 84.9331 285.037 88.8492 285.471 89.1535C285.902 89.4579 287.487 92.0829 287.558 93.904Z" fill="white"/>
<path fill-rule="evenodd" clip-rule="evenodd" d="M306.035 190.838L305.982 190.206C305.85 188.606 305.698 186.58 305.538 184.436C305.221 180.196 304.861 175.389 304.496 171.905L304.422 171.232L338.163 167.978L332.488 151.401C332.367 151.051 332.554 150.673 332.904 150.552C333.252 150.432 333.635 150.62 333.754 150.967L339.979 169.148L305.893 172.435C306.241 175.869 306.576 180.353 306.872 184.337C307.012 186.204 307.144 187.985 307.266 189.466L343.145 188.515C355.976 187.49 359.609 186.866 363.015 183.549C365.758 180.883 366.914 176.427 366.45 170.307C366.095 165.587 364.776 159.771 362.427 152.532C355.595 131.484 347.663 116.905 338.853 109.202C335.408 106.192 328.242 99.9272 312.382 97.396L312.202 97.3681L312.063 97.2514C309.846 95.4253 307.798 89.9165 307.025 87.6313C305.46 83.0355 306.157 87.6034 306.157 84.641C306.157 84.2707 306.456 83.9714 306.827 83.9714C307.195 83.9714 307.494 84.2707 307.494 84.641C307.494 87.469 306.774 82.7337 308.291 87.2027C309.759 91.5194 311.466 94.8952 312.781 96.105C328.889 98.7149 336.21 105.114 339.733 108.196C345.144 112.926 350.248 120.172 354.9 129.731C357.995 136.092 360.874 143.414 363.7 152.119C366.118 159.563 367.414 165.313 367.787 170.208C368.018 173.277 367.861 175.985 367.315 178.253C366.701 180.832 365.567 182.935 363.949 184.51C360.228 188.129 356.466 188.791 343.234 189.851L343.196 189.854L306.035 190.838Z" fill="#2E2E2E"/>
<path fill-rule="evenodd" clip-rule="evenodd" d="M374.837 217.113H249.941C249.571 217.113 249.271 216.814 249.271 216.444C249.271 216.073 249.571 215.774 249.941 215.774H374.837C379.117 215.774 382.597 212.294 382.597 208.018V95.7951C382.597 91.5189 379.117 88.0391 374.837 88.0391H315.242C314.871 88.0391 314.572 87.7398 314.572 87.3695C314.572 86.9992 314.871 86.7 315.242 86.7H374.837C379.855 86.7 383.934 90.7808 383.934 95.7951V208.018C383.934 213.032 379.855 217.113 374.837 217.113Z" fill="#2E2E2E"/>
<path fill-rule="evenodd" clip-rule="evenodd" d="M270.427 88.0389H255.577C255.204 88.0389 254.905 87.7396 254.905 87.3693C254.905 86.999 255.204 86.6998 255.577 86.6998H270.427C270.798 86.6998 271.097 86.999 271.097 87.3693C271.097 87.7396 270.798 88.0389 270.427 88.0389Z" fill="#2E2E2E"/>
<path fill-rule="evenodd" clip-rule="evenodd" d="M249.94 217.113H221.275C216.26 217.113 212.176 213.032 212.176 208.018V95.7951C212.176 95.4248 212.475 95.1281 212.848 95.1281C213.216 95.1281 213.518 95.4248 213.518 95.7951V208.018C213.518 212.294 216.998 215.774 221.275 215.774H249.94C250.31 215.774 250.61 216.073 250.61 216.444C250.61 216.814 250.31 217.113 249.94 217.113Z" fill="#2E2E2E"/>
<path fill-rule="evenodd" clip-rule="evenodd" d="M228.185 194.407L225.164 192.895C224.781 192.705 224.332 192.982 224.332 193.408V203.766C224.332 204.192 224.781 204.468 225.164 204.278L235.522 199.102C235.945 198.889 235.945 198.285 235.522 198.074L233.107 196.867L228.185 194.407Z" fill="#EA3346"/>
<path fill-rule="evenodd" clip-rule="evenodd" d="M224.905 205.009C224.679 205.009 224.454 204.948 224.251 204.821C223.883 204.593 223.662 204.2 223.662 203.766V193.408C223.662 192.974 223.883 192.581 224.251 192.351C224.621 192.122 225.073 192.105 225.463 192.297L228.482 193.806C228.814 193.974 228.949 194.375 228.781 194.707C228.616 195.036 228.216 195.171 227.886 195.006L225.002 193.563V203.612L235.05 198.587L232.807 197.466C232.475 197.299 232.343 196.898 232.508 196.568C232.675 196.239 233.076 196.104 233.406 196.269L235.821 197.476C236.244 197.687 236.506 198.113 236.506 198.587C236.506 199.062 236.244 199.488 235.821 199.698L225.463 204.877C225.283 204.966 225.093 205.009 224.905 205.009Z" fill="#2E2E2E"/>
<path fill-rule="evenodd" clip-rule="evenodd" d="M286.8 202.811C284.471 202.811 282.576 200.916 282.576 198.585C282.576 196.26 284.471 194.363 286.8 194.363C289.131 194.363 291.026 196.26 291.026 198.585C291.026 198.956 290.727 199.258 290.356 199.258C289.986 199.258 289.689 198.956 289.689 198.585C289.689 196.995 288.393 195.702 286.8 195.702C285.209 195.702 283.913 196.995 283.913 198.585C283.913 200.178 285.209 201.474 286.8 201.474C287.17 201.474 287.472 201.774 287.472 202.141C287.472 202.512 287.17 202.811 286.8 202.811Z" fill="#2E2E2E"/>
<path fill-rule="evenodd" clip-rule="evenodd" d="M367.955 199.257H290.356C289.986 199.257 289.687 198.957 289.687 198.587C289.687 198.217 289.986 197.917 290.356 197.917H367.955C368.325 197.917 368.625 198.217 368.625 198.587C368.625 198.957 368.325 199.257 367.955 199.257Z" fill="#2E2E2E"/>
<path fill-rule="evenodd" clip-rule="evenodd" d="M283.245 199.257H245.59C245.222 199.257 244.923 198.957 244.923 198.587C244.923 198.217 245.222 197.917 245.59 197.917H283.245C283.616 197.917 283.915 198.217 283.915 198.587C283.915 198.957 283.616 199.257 283.245 199.257Z" fill="#2E2E2E"/>
<path fill-rule="evenodd" clip-rule="evenodd" d="M291.667 181.662H291.654L265.374 181.112C264.083 181.087 262.974 180.146 262.746 178.872L257.325 148.965C257.178 148.158 257.398 147.336 257.929 146.712C258.459 146.088 259.233 145.741 260.054 145.754L286.604 146.236C287.238 146.248 287.781 146.71 287.895 147.334L291.256 165.689C291.322 166.052 291.084 166.399 290.718 166.467C290.356 166.533 290.008 166.292 289.94 165.93L286.578 147.575L260.029 147.093C259.616 147.083 259.22 147.263 258.951 147.58C258.68 147.897 258.565 148.315 258.639 148.726L264.062 178.634C264.179 179.283 264.742 179.76 265.402 179.773L291.682 180.323C292.05 180.331 292.344 180.638 292.337 181.008C292.329 181.371 292.032 181.662 291.667 181.662Z" fill="#2E2E2E"/>
<path fill-rule="evenodd" clip-rule="evenodd" d="M260.042 147.093C259.928 147.093 259.814 147.065 259.71 147.004C259.388 146.822 259.276 146.411 259.462 146.091C260.25 144.709 262.536 143.139 263.787 142.87L263.86 142.855H263.939L289.501 143.319L313.349 133.887L313.425 133.876C314.689 133.689 317.383 134.358 318.605 135.375C318.89 135.611 318.93 136.035 318.692 136.316C318.456 136.603 318.035 136.641 317.751 136.405C316.875 135.68 314.668 135.091 313.689 135.193L289.745 144.663L264 144.194C263.048 144.445 261.187 145.769 260.623 146.756C260.502 146.971 260.273 147.093 260.042 147.093Z" fill="#2E2E2E"/>
<path fill-rule="evenodd" clip-rule="evenodd" d="M298.591 173.969C298.274 173.969 297.995 173.744 297.934 173.419L293.038 146.402C292.927 145.779 293.272 145.155 293.863 144.921L318.553 135.157C319.316 134.855 320.164 134.911 320.879 135.309C321.594 135.707 322.092 136.397 322.236 137.203L327.657 167.111C327.888 168.379 327.188 169.645 325.996 170.124L325.24 170.467C324.902 170.619 324.507 170.469 324.354 170.132C324.202 169.795 324.352 169.399 324.689 169.247L325.488 168.887C326.1 168.646 326.457 167.999 326.341 167.352L320.92 137.442C320.844 137.033 320.595 136.681 320.23 136.478C319.867 136.275 319.433 136.247 319.045 136.399L294.355 146.167L299.253 173.181C299.317 173.546 299.076 173.893 298.713 173.959C298.673 173.967 298.632 173.969 298.591 173.969Z" fill="#2E2E2E"/>
<path fill-rule="evenodd" clip-rule="evenodd" d="M289.225 148.293C288.19 148.293 287.31 148.057 286.597 147.588C286.29 147.383 286.204 146.969 286.407 146.66C286.612 146.35 287.026 146.267 287.335 146.47C288.251 147.076 289.542 147.002 290.466 146.835C291.389 146.667 292.624 146.282 293.271 145.394C293.489 145.095 293.908 145.029 294.205 145.247C294.504 145.465 294.57 145.884 294.352 146.181C293.624 147.182 292.396 147.844 290.704 148.151C290.181 148.245 289.689 148.293 289.225 148.293Z" fill="#2E2E2E"/>
<path fill-rule="evenodd" clip-rule="evenodd" d="M291.67 181.662C291.642 181.662 291.617 181.662 291.594 181.657C291.224 181.617 290.963 181.285 291.003 180.917C291.282 178.472 289.717 172.205 289.131 169.846C288.629 167.835 289.441 165.702 290.978 164.989C292.216 164.416 293.555 164.908 294.565 166.308C295.45 167.538 296.168 168.694 296.8 169.714C299.062 173.351 300.305 175.352 305.293 175.284H305.303C305.668 175.284 305.967 175.578 305.972 175.946C305.977 176.313 305.678 176.618 305.31 176.623C305.227 176.625 305.14 176.625 305.057 176.625C299.519 176.625 297.898 174.013 295.663 170.419C295.042 169.417 294.336 168.284 293.476 167.089C293.116 166.589 292.386 165.811 291.541 166.204C290.704 166.592 290.042 167.972 290.43 169.521C291.457 173.648 292.604 178.687 292.335 181.069C292.294 181.409 292.005 181.662 291.67 181.662Z" fill="#2E2E2E"/>
<path fill-rule="evenodd" clip-rule="evenodd" d="M298.545 188.752C295.731 188.752 292.307 188.032 289.357 186.817C286.906 185.808 283.636 184.002 281.967 181.138C281.782 180.819 281.891 180.408 282.211 180.223C282.53 180.038 282.939 180.144 283.124 180.464C285.557 184.641 293.02 187.413 298.535 187.413H298.664C304.704 187.365 306.431 187.299 306.449 187.297H306.477C306.835 187.297 307.132 187.578 307.147 187.938C307.159 188.308 306.873 188.62 306.505 188.636C306.434 188.638 304.744 188.702 298.674 188.752C298.631 188.752 298.588 188.752 298.545 188.752Z" fill="#2E2E2E"/>
<path fill-rule="evenodd" clip-rule="evenodd" d="M277.632 144.286C277.325 144.286 277.049 144.073 276.977 143.761L275.585 137.46C275.506 137.098 275.734 136.74 276.097 136.662C276.455 136.58 276.815 136.809 276.894 137.171L278.286 143.471C278.365 143.832 278.137 144.189 277.779 144.27C277.728 144.281 277.68 144.286 277.632 144.286Z" fill="#2E2E2E"/>
<path fill-rule="evenodd" clip-rule="evenodd" d="M76.8975 157.305C76.7631 160.592 79.3201 163.367 82.6102 163.501C85.9004 163.636 88.6756 161.077 88.8075 157.787C88.9419 154.5 86.3824 151.725 83.0948 151.593C79.8046 151.459 77.032 154.016 76.8975 157.305Z" fill="#F5BF51"/>
<path fill-rule="evenodd" clip-rule="evenodd" d="M87.9118 139.706C87.8205 141.973 89.5835 143.886 91.8514 143.977C94.1167 144.071 96.0319 142.305 96.1232 140.038C96.2146 137.773 94.4515 135.858 92.1862 135.767C89.9184 135.676 88.0032 137.438 87.9118 139.706Z" fill="white"/>
<path fill-rule="evenodd" clip-rule="evenodd" d="M53.3061 150.224C53.1919 152.988 55.3431 155.319 58.1081 155.433C60.8732 155.545 63.2044 153.394 63.316 150.63C63.4302 147.865 61.2816 145.534 58.5165 145.42C55.7515 145.309 53.4177 147.459 53.3061 150.224Z" fill="white"/>
<path fill-rule="evenodd" clip-rule="evenodd" d="M77.5026 157.329C77.3834 160.278 79.6842 162.777 82.6344 162.896C85.5897 163.015 88.0833 160.712 88.205 157.762C88.2608 156.334 87.7611 154.97 86.7895 153.917C85.8205 152.867 84.5014 152.256 83.0707 152.198C80.1205 152.079 77.6243 154.379 77.5026 157.329ZM82.8605 164.113C82.7692 164.113 82.6778 164.111 82.5865 164.106C78.9691 163.959 76.1458 160.897 76.2903 157.281C76.44 153.664 79.5044 150.838 83.1218 150.988C84.8721 151.056 86.4931 151.807 87.6828 153.098C88.87 154.387 89.4864 156.061 89.4154 157.813C89.3444 159.566 88.5935 161.186 87.3048 162.373C86.0821 163.502 84.5144 164.113 82.8605 164.113Z" fill="#2E2E2E"/>
<path fill-rule="evenodd" clip-rule="evenodd" d="M88.5188 139.731C88.4402 141.661 89.9445 143.294 91.8749 143.373C91.9231 143.375 91.9713 143.375 92.0195 143.375C93.8866 143.375 95.4416 141.897 95.5177 140.015C95.5963 138.085 94.0895 136.451 92.1616 136.373C90.2286 136.297 88.5949 137.801 88.5188 139.731ZM92.0191 144.588C91.9532 144.588 91.8898 144.585 91.8263 144.583C89.2287 144.479 87.1993 142.277 87.3059 139.68C87.4099 137.085 89.6118 135.056 92.2094 135.163C94.807 135.267 96.8338 137.466 96.7273 140.063C96.6258 142.597 94.533 144.588 92.0191 144.588Z" fill="#2E2E2E"/>
<path fill-rule="evenodd" clip-rule="evenodd" d="M53.3065 150.224L53.9103 150.247C53.8646 151.424 54.2781 152.547 55.0721 153.412C55.8712 154.277 56.9569 154.779 58.1314 154.827C59.3084 154.873 60.4348 154.462 61.2972 153.663C62.1623 152.867 62.6645 151.781 62.7127 150.604C62.7609 149.43 62.3474 148.306 61.5509 147.442C60.7544 146.577 59.6661 146.075 58.4916 146.026C57.3171 145.981 56.1933 146.392 55.3258 147.188C54.4608 147.987 53.9585 149.072 53.9103 150.247L53.3065 150.224ZM58.3188 156.042C58.2376 156.042 58.1615 156.04 58.0854 156.037C56.5862 155.976 55.1986 155.337 54.1839 154.234C53.1642 153.13 52.6391 151.697 52.6999 150.199C52.7608 148.7 53.4026 147.315 54.5061 146.298C55.607 145.281 57.0403 144.756 58.5395 144.817C60.0387 144.877 61.4238 145.519 62.4435 146.62C63.4582 147.723 63.9833 149.156 63.925 150.655C63.8616 152.154 63.2223 153.539 62.1188 154.556C61.0737 155.52 59.7318 156.042 58.3188 156.042Z" fill="#2E2E2E"/>
<path fill-rule="evenodd" clip-rule="evenodd" d="M85.9154 153.039C85.8216 153.039 85.7277 153.019 85.6415 152.973C85.3396 152.821 85.2254 152.456 85.3751 152.156C86.9606 149.049 89.8042 143.421 89.8321 143.365C89.9843 143.066 90.3471 142.947 90.6464 143.097C90.9432 143.249 91.065 143.611 90.9153 143.911C90.8849 143.967 88.0437 149.597 86.4558 152.709C86.3492 152.917 86.1361 153.039 85.9154 153.039Z" fill="#2E2E2E"/>
<path fill-rule="evenodd" clip-rule="evenodd" d="M76.9426 156.804C76.8893 156.804 76.831 156.796 76.7752 156.781L62.8333 152.771C62.5137 152.68 62.326 152.345 62.4198 152.023C62.5137 151.701 62.8485 151.515 63.1682 151.607L77.11 155.614C77.4297 155.708 77.6174 156.043 77.5235 156.365C77.4474 156.631 77.2064 156.804 76.9426 156.804Z" fill="#2E2E2E"/>
<path fill-rule="evenodd" clip-rule="evenodd" d="M70.4466 170.331C70.2868 170.331 70.127 170.267 70.0077 170.143C69.7769 169.902 69.7845 169.517 70.028 169.286L78.2572 161.428C78.5007 161.198 78.8838 161.208 79.1146 161.449C79.3454 161.692 79.3378 162.075 79.0943 162.306L70.8652 170.163C70.7459 170.275 70.5988 170.331 70.4466 170.331Z" fill="#2E2E2E"/>
<path fill-rule="evenodd" clip-rule="evenodd" d="M60.0793 172.232C59.917 176.214 63.0143 179.572 66.997 179.734C70.9797 179.896 74.3383 176.799 74.5007 172.818C74.6605 168.836 71.5631 165.478 67.583 165.315C63.6003 165.153 60.2392 168.25 60.0793 172.232Z" fill="#EA3346"/>
<path fill-rule="evenodd" clip-rule="evenodd" d="M60.6836 172.257C60.5339 175.899 63.3776 178.98 67.0203 179.127C68.7833 179.201 70.4703 178.582 71.7691 177.385C73.0679 176.188 73.8238 174.557 73.8948 172.792C73.9659 171.029 73.3444 169.342 72.1496 168.044C70.9522 166.748 69.3211 165.992 67.5581 165.921C65.7925 165.85 64.1081 166.469 62.8093 167.666C61.5105 168.863 60.7546 170.494 60.6836 172.257ZM67.2945 180.345C67.1879 180.345 67.0788 180.345 66.9723 180.34C62.6599 180.165 59.2987 176.518 59.4712 172.206C59.5574 170.121 60.4504 168.191 61.9876 166.773C63.5224 165.358 65.5162 164.625 67.6065 164.711C69.6942 164.795 71.6221 165.688 73.0402 167.225C74.4582 168.759 75.1913 170.755 75.1051 172.843C75.0188 174.93 74.1284 176.86 72.5912 178.275C71.1351 179.617 69.2655 180.345 67.2945 180.345Z" fill="#2E2E2E"/>
<path fill-rule="evenodd" clip-rule="evenodd" d="M112.605 89.3319C112.011 89.3319 111.529 88.8475 111.529 88.254C111.529 87.6605 112.011 87.1761 112.605 87.1761C113.199 87.1761 113.681 87.6605 113.681 88.254C113.681 88.8475 113.199 89.3319 112.605 89.3319Z" fill="#2E2E2E"/>
<path fill-rule="evenodd" clip-rule="evenodd" d="M124.15 89.3319C123.556 89.3319 123.071 88.8475 123.071 88.254C123.071 87.6605 123.556 87.1761 124.15 87.1761C124.741 87.1761 125.225 87.6605 125.225 88.254C125.225 88.8475 124.741 89.3319 124.15 89.3319Z" fill="#2E2E2E"/>
<path fill-rule="evenodd" clip-rule="evenodd" d="M135.691 89.3319C135.097 89.3319 134.615 88.8475 134.615 88.254C134.615 87.6605 135.097 87.1761 135.691 87.1761C136.285 87.1761 136.769 87.6605 136.769 88.254C136.769 88.8475 136.285 89.3319 135.691 89.3319Z" fill="#2E2E2E"/>
<path fill-rule="evenodd" clip-rule="evenodd" d="M112.605 79.593C112.011 79.593 111.529 79.1086 111.529 78.5151C111.529 77.9216 112.011 77.4372 112.605 77.4372C113.199 77.4372 113.681 77.9216 113.681 78.5151C113.681 79.1086 113.199 79.593 112.605 79.593Z" fill="#2E2E2E"/>
<path fill-rule="evenodd" clip-rule="evenodd" d="M124.15 79.593C123.556 79.593 123.071 79.1086 123.071 78.5151C123.071 77.9216 123.556 77.4372 124.15 77.4372C124.741 77.4372 125.225 77.9216 125.225 78.5151C125.225 79.1086 124.741 79.593 124.15 79.593Z" fill="#2E2E2E"/>
<path fill-rule="evenodd" clip-rule="evenodd" d="M135.691 79.593C135.097 79.593 134.615 79.1086 134.615 78.5151C134.615 77.9216 135.097 77.4372 135.691 77.4372C136.285 77.4372 136.769 77.9216 136.769 78.5151C136.769 79.1086 136.285 79.593 135.691 79.593Z" fill="#2E2E2E"/>
<path fill-rule="evenodd" clip-rule="evenodd" d="M112.605 99.0697C112.011 99.0697 111.529 98.5878 111.529 97.9917C111.529 97.3982 112.011 96.9163 112.605 96.9163C113.199 96.9163 113.681 97.3982 113.681 97.9917C113.681 98.5878 113.199 99.0697 112.605 99.0697Z" fill="#2E2E2E"/>
<path fill-rule="evenodd" clip-rule="evenodd" d="M124.15 99.0697C123.556 99.0697 123.071 98.5878 123.071 97.9917C123.071 97.3982 123.556 96.9163 124.15 96.9163C124.741 96.9163 125.225 97.3982 125.225 97.9917C125.225 98.5878 124.741 99.0697 124.15 99.0697Z" fill="#2E2E2E"/>
<path fill-rule="evenodd" clip-rule="evenodd" d="M135.691 99.0697C135.097 99.0697 134.615 98.5878 134.615 97.9917C134.615 97.3982 135.097 96.9163 135.691 96.9163C136.285 96.9163 136.769 97.3982 136.769 97.9917C136.769 98.5878 136.285 99.0697 135.691 99.0697Z" fill="#2E2E2E"/>
<path fill-rule="evenodd" clip-rule="evenodd" d="M89.4554 53.731L91.2514 66.1309C91.2717 66.2451 91.4188 66.278 91.4873 66.1842L107.593 41.9398C107.662 41.846 107.58 41.7192 107.466 41.7369L79.0041 46.6319C78.8798 46.6522 78.8544 46.8196 78.9635 46.878L89.3869 53.6372C89.4224 53.6549 89.4478 53.6904 89.4554 53.731Z" fill="#7A98D3"/>
<path fill-rule="evenodd" clip-rule="evenodd" d="M82.534 49.0521L107.427 42.2599L78.9648 46.8785L82.534 49.0521Z" fill="white"/>
<path fill-rule="evenodd" clip-rule="evenodd" d="M91.3823 66.9068C91.3239 66.9068 91.263 66.9017 91.2047 66.889C90.8876 66.818 90.6466 66.5644 90.5908 66.2423V66.2245L88.8278 54.0732L78.6174 47.4484C78.3333 47.281 78.1836 46.9614 78.2344 46.6342C78.2902 46.2944 78.554 46.0281 78.8939 45.9723L107.351 41.0772C107.673 41.024 107.99 41.166 108.163 41.4399C108.335 41.7088 108.328 42.0512 108.147 42.3149L104.025 48.5187C103.82 48.8281 103.404 48.9118 103.097 48.7089C102.79 48.5035 102.706 48.0875 102.912 47.7806L106.344 42.6091L80.4743 47.0603L89.7359 53.0663C89.9338 53.1855 90.0733 53.3884 90.1139 53.6166L90.1164 53.6344L91.712 64.6368L98.2466 54.796C98.4521 54.4891 98.8681 54.4054 99.1751 54.6109C99.482 54.8138 99.5683 55.2297 99.3628 55.5366L92.0367 66.5669C91.882 66.785 91.641 66.9068 91.3823 66.9068Z" fill="#2E2E2E"/>
<path fill-rule="evenodd" clip-rule="evenodd" d="M89.4429 54.3364C89.2222 54.3364 89.0065 54.2274 88.8772 54.0245C88.6793 53.715 88.7706 53.3016 89.0826 53.1013L99.5771 46.4283C99.8891 46.2305 100.303 46.3218 100.5 46.6337C100.698 46.9457 100.607 47.3591 100.295 47.5569L89.8031 54.2299C89.6915 54.3009 89.5672 54.3364 89.4429 54.3364Z" fill="white"/>
<path fill-rule="evenodd" clip-rule="evenodd" d="M79.2954 62.9573C79.1965 62.9573 79.095 62.9192 79.0189 62.8457C78.8566 62.6935 78.8515 62.4373 79.0063 62.2775C80.579 60.6366 82.2304 59.0894 83.9199 57.6742C84.0899 57.5321 84.3435 57.555 84.4856 57.7249C84.6302 57.8948 84.6048 58.1485 84.4349 58.2905C82.7682 59.6855 81.1397 61.2148 79.5846 62.833C79.506 62.9167 79.402 62.9573 79.2954 62.9573ZM71.0892 73.5082C71.0156 73.5082 70.9421 73.4879 70.8787 73.4474C70.6884 73.3281 70.6326 73.0821 70.7493 72.8919C71.9289 71.0049 73.2251 69.1483 74.6051 67.3729C74.7421 67.1979 74.9958 67.1675 75.1683 67.3019C75.3433 67.4389 75.3763 67.6925 75.2393 67.8675C73.8771 69.6201 72.5935 71.4538 71.4291 73.318C71.353 73.4397 71.2211 73.5082 71.0892 73.5082ZM71.8908 83.8791C71.6904 83.8791 71.5179 83.7295 71.4925 83.5266C71.4646 83.3059 71.6219 83.1055 71.8426 83.0776C73.0957 82.9204 74.3463 82.8418 75.5564 82.8418C76.5939 82.8418 77.6213 82.9001 78.6106 83.0142C78.8313 83.0396 78.9911 83.24 78.9657 83.4581C78.9403 83.6787 78.7399 83.836 78.5193 83.8106C77.5578 83.7016 76.5609 83.6458 75.5564 83.6458C74.3818 83.6458 73.1617 83.7218 71.9415 83.8766C71.9238 83.8766 71.906 83.8791 71.8908 83.8791ZM59.2014 87.9296C59.0543 87.9296 58.9148 87.8484 58.8437 87.7089C58.7423 87.5136 58.8234 87.2701 59.0188 87.1687C61.0177 86.1516 63.0547 85.2969 65.0765 84.6273C65.7462 82.6896 66.5579 80.7265 67.494 78.7888C67.5904 78.5884 67.8288 78.5047 68.0292 78.6011C68.2296 78.6975 68.3133 78.9359 68.2169 79.1362C67.2327 81.178 66.3854 83.245 65.7005 85.2791C65.6295 85.4897 65.4012 85.6038 65.1906 85.5328C65.15 85.5201 65.112 85.4998 65.079 85.4719C63.1765 86.1161 61.2638 86.9277 59.3841 87.8864C59.3257 87.9143 59.2648 87.9296 59.2014 87.9296ZM90.6244 89.1039C90.5305 89.1039 90.4341 89.0684 90.358 88.9999C88.7168 87.5339 86.8624 86.3495 84.8533 85.4795C84.6479 85.3907 84.5565 85.1549 84.6428 84.952C84.7341 84.7465 84.9675 84.6552 85.1704 84.7414C87.2632 85.6469 89.1861 86.8795 90.8908 88.4013C91.0582 88.5484 91.0734 88.802 90.9237 88.9669C90.8451 89.0582 90.736 89.1039 90.6244 89.1039ZM48.2434 95.5486C48.1343 95.5486 48.0252 95.5054 47.9466 95.4167C47.7969 95.2518 47.8096 94.9982 47.972 94.8485C49.6487 93.3318 51.4245 91.9166 53.2408 90.6459C53.4259 90.5191 53.6745 90.5648 53.8014 90.7474C53.9282 90.9274 53.8825 91.1785 53.7024 91.3054C51.9115 92.5557 50.1662 93.9482 48.5123 95.4446C48.4362 95.5131 48.3398 95.5486 48.2434 95.5486ZM63.0807 98.6834C62.8626 98.6834 62.685 98.5084 62.6799 98.2878C62.6774 98.1407 62.6774 97.9885 62.6774 97.8388C62.6774 95.82 62.8702 93.7047 63.2532 91.5565C63.2887 91.3358 63.4968 91.1912 63.7174 91.2293C63.9356 91.2699 64.0827 91.4778 64.0422 91.696C63.6693 93.7985 63.4815 95.8656 63.4815 97.8388C63.4815 97.9859 63.4841 98.1305 63.4841 98.2776C63.4891 98.4983 63.309 98.6809 63.0883 98.6834H63.0807ZM97.2726 100.433C97.0798 100.433 96.9073 100.297 96.8768 100.099C96.5344 98.0265 95.748 95.9848 94.5481 94.0369C94.4314 93.8493 94.4872 93.6007 94.6775 93.484C94.8677 93.3674 95.1138 93.4282 95.2305 93.6159C96.4862 95.6551 97.3106 97.7906 97.6683 99.9668C97.7038 100.187 97.5567 100.393 97.336 100.428C97.3157 100.433 97.2954 100.433 97.2726 100.433ZM39.5072 105.648C39.4311 105.648 39.355 105.625 39.2865 105.58C39.1013 105.455 39.0531 105.207 39.1774 105.022C40.4255 103.168 41.8004 101.364 43.2666 99.67C43.4112 99.5026 43.6649 99.4824 43.8348 99.6269C43.9997 99.774 44.02 100.028 43.8729 100.195C42.4295 101.866 41.0723 103.642 39.842 105.471C39.7659 105.587 39.6365 105.648 39.5072 105.648ZM66.5456 111.443C66.4086 111.443 66.2767 111.375 66.2006 111.251C65.0413 109.343 64.1535 107.241 63.5649 105.004C63.5091 104.788 63.636 104.57 63.8516 104.512C64.0647 104.456 64.2854 104.585 64.3412 104.801C64.9094 106.962 65.7668 108.991 66.8855 110.835C67.0022 111.022 66.9439 111.271 66.7536 111.385C66.6877 111.426 66.6166 111.443 66.5456 111.443ZM93.9703 113.024C93.8865 113.024 93.8028 112.996 93.7293 112.942C93.5517 112.811 93.5136 112.559 93.6481 112.382C95.0002 110.571 95.9717 108.61 96.5349 106.554C96.5907 106.34 96.8114 106.216 97.027 106.275C97.2401 106.333 97.3669 106.551 97.3086 106.767C96.7201 108.92 95.7079 110.969 94.2899 112.861C94.2138 112.968 94.092 113.024 93.9703 113.024ZM33.5857 117.604C33.5477 117.604 33.5045 117.597 33.464 117.584C33.2534 117.513 33.1367 117.287 33.2052 117.077C33.913 114.923 34.7754 112.826 35.7698 110.837C35.8688 110.639 36.1098 110.558 36.3076 110.657C36.5055 110.756 36.5867 110.997 36.4877 111.197C35.5111 113.15 34.6638 115.212 33.9688 117.328C33.913 117.495 33.7557 117.604 33.5857 117.604ZM76.4339 120.095C76.3933 120.095 76.3527 120.087 76.3121 120.077C75.1959 119.727 74.1407 119.212 73.1742 118.543C72.2406 117.896 71.3553 117.196 70.541 116.465C70.3761 116.316 70.3635 116.062 70.5106 115.897C70.6603 115.732 70.9139 115.72 71.0788 115.867C71.8652 116.577 72.7252 117.257 73.6333 117.883C74.5288 118.505 75.513 118.986 76.5531 119.309C76.7636 119.374 76.8829 119.6 76.8144 119.813C76.7636 119.983 76.6038 120.095 76.4339 120.095ZM83.0467 120.285C82.8615 120.285 82.6966 120.156 82.6535 119.971C82.6078 119.752 82.7423 119.539 82.9604 119.491C84.9873 119.045 87.0471 118.142 88.9167 116.881C89.1018 116.757 89.3504 116.805 89.4773 116.99C89.599 117.173 89.5508 117.424 89.3682 117.546C87.4124 118.865 85.2587 119.808 83.1329 120.275C83.105 120.282 83.0746 120.285 83.0467 120.285ZM31.1606 130.727C31.153 130.727 31.1505 130.727 31.1429 130.724C30.9196 130.714 30.7497 130.524 30.7598 130.303C30.8791 128.049 31.1454 125.796 31.5462 123.61C31.5843 123.392 31.7923 123.247 32.0104 123.288C32.2286 123.329 32.3757 123.537 32.3351 123.755C31.9394 125.908 31.6781 128.125 31.564 130.346C31.5513 130.559 31.3737 130.727 31.1606 130.727ZM32.1194 144.042C31.9317 144.042 31.7642 143.911 31.7262 143.718C31.2899 141.529 30.988 139.282 30.8282 137.04C30.813 136.819 30.9778 136.626 31.1985 136.611C31.4192 136.596 31.612 136.763 31.6273 136.984C31.7871 139.19 32.0864 141.405 32.5151 143.563C32.5557 143.781 32.4162 143.992 32.198 144.035C32.1726 144.04 32.1447 144.042 32.1194 144.042ZM36.1535 156.189C36.0064 156.189 35.8618 156.105 35.7933 155.963C34.908 154.139 34.1216 152.212 33.457 150.233C33.3834 150.023 33.4976 149.795 33.7081 149.724C33.9187 149.655 34.147 149.767 34.2155 149.977C34.8725 151.925 35.6462 153.82 36.5137 155.613C36.6127 155.811 36.529 156.052 36.3286 156.148C36.2728 156.176 36.2119 156.189 36.1535 156.189Z" fill="#2E2E2E"/>
<path fill-rule="evenodd" clip-rule="evenodd" d="M169.782 59.274H166.223C164.323 59.274 162.778 57.732 162.778 55.8297V52.4894C162.778 50.5872 164.323 49.0452 166.223 49.0452H169.782C171.685 49.0452 173.227 50.5872 173.227 52.4894V55.8297C173.227 57.732 171.685 59.274 169.782 59.274Z" fill="white"/>
<path fill-rule="evenodd" clip-rule="evenodd" d="M169.782 78.7558H166.223C164.323 78.7558 162.778 77.2138 162.778 75.3115V71.9713C162.778 70.069 164.323 68.527 166.223 68.527H169.782C171.685 68.527 173.227 70.069 173.227 71.9713V75.3115C173.227 77.2138 171.685 78.7558 169.782 78.7558Z" fill="white"/>
<mask id="mask0_35_235" style="mask-type:alpha" maskUnits="userSpaceOnUse" x="0" y="0" width="432" height="316">
<path fill-rule="evenodd" clip-rule="evenodd" d="M0 315.342H432V0H0V315.342Z" fill="white"/>
</mask>
<g mask="url(#mask0_35_235)">
<path fill-rule="evenodd" clip-rule="evenodd" d="M163.395 58.6567H172.611V49.6605H163.395V58.6567ZM173.104 59.8894H162.904C162.495 59.8894 162.163 59.5571 162.163 59.1488V49.171C162.163 48.7601 162.495 48.4304 162.904 48.4304H173.104C173.512 48.4304 173.844 48.7601 173.844 49.171V59.1488C173.844 59.5571 173.512 59.8894 173.104 59.8894Z" fill="#2E2E2E"/>
<path fill-rule="evenodd" clip-rule="evenodd" d="M168.098 56.7738L164.486 53.4918C164.235 53.2636 164.217 52.873 164.445 52.6219C164.671 52.3708 165.064 52.3505 165.313 52.5813L167.91 54.935L174.283 46.1417C174.481 45.8677 174.866 45.8043 175.14 46.0047C175.417 46.2051 175.478 46.5906 175.277 46.8645L168.098 56.7738Z" fill="#EA3346"/>
<path fill-rule="evenodd" clip-rule="evenodd" d="M163.395 78.1379H172.611V69.1417H163.395V78.1379ZM173.104 79.3706H162.904C162.495 79.3706 162.163 79.0383 162.163 78.63V68.6522C162.163 68.2439 162.495 67.9116 162.904 67.9116H173.104C173.512 67.9116 173.844 68.2439 173.844 68.6522V78.63C173.844 79.0383 173.512 79.3706 173.104 79.3706Z" fill="#2E2E2E"/>
<path fill-rule="evenodd" clip-rule="evenodd" d="M168.098 76.254L164.486 72.9745C164.235 72.7437 164.217 72.3557 164.445 72.1021C164.671 71.851 165.064 71.8332 165.313 72.0615L167.91 74.4177L174.283 65.6244C174.481 65.3479 174.866 65.2871 175.14 65.4849C175.417 65.6853 175.478 66.0708 175.277 66.3472L168.098 76.254Z" fill="#EA3346"/>
<path fill-rule="evenodd" clip-rule="evenodd" d="M163.385 97.6294H172.621V88.6129H163.385V97.6294ZM173.104 98.8417H162.903C162.503 98.8417 162.173 98.5146 162.173 98.1113V88.1335C162.173 87.7303 162.503 87.4031 162.903 87.4031H173.104C173.507 87.4031 173.834 87.7303 173.834 88.1335V98.1113C173.834 98.5146 173.507 98.8417 173.104 98.8417Z" fill="#2E2E2E"/>
<path fill-rule="evenodd" clip-rule="evenodd" d="M204.297 52.3512H181.537C181.202 52.3512 180.934 52.0799 180.934 51.7451C180.934 51.4103 181.202 51.1389 181.537 51.1389H204.297C204.632 51.1389 204.903 51.4103 204.903 51.7451C204.903 52.0799 204.632 52.3512 204.297 52.3512Z" fill="#2E2E2E"/>
<path fill-rule="evenodd" clip-rule="evenodd" d="M198.462 56.6054H181.537C181.202 56.6054 180.934 56.334 180.934 55.9992C180.934 55.6644 181.202 55.3931 181.537 55.3931H198.462C198.797 55.3931 199.066 55.6644 199.066 55.9992C199.066 56.334 198.797 56.6054 198.462 56.6054Z" fill="#2E2E2E"/>
<path fill-rule="evenodd" clip-rule="evenodd" d="M204.296 71.2669H192.987C192.65 71.2669 192.381 70.9955 192.381 70.6607C192.381 70.3259 192.65 70.0545 192.987 70.0545H204.296C204.631 70.0545 204.902 70.3259 204.902 70.6607C204.902 70.9955 204.631 71.2669 204.296 71.2669Z" fill="#2E2E2E"/>
<path fill-rule="evenodd" clip-rule="evenodd" d="M189.21 71.2669H181.539C181.204 71.2669 180.933 70.9955 180.933 70.6607C180.933 70.3259 181.204 70.0545 181.539 70.0545H189.21C189.547 70.0545 189.816 70.3259 189.816 70.6607C189.816 70.9955 189.547 71.2669 189.21 71.2669Z" fill="#2E2E2E"/>
<path fill-rule="evenodd" clip-rule="evenodd" d="M201.239 75.5198H181.536C181.204 75.5198 180.933 75.2484 180.933 74.9137C180.933 74.5789 181.204 74.3075 181.536 74.3075H201.239C201.574 74.3075 201.846 74.5789 201.846 74.9137C201.846 75.2484 201.574 75.5198 201.239 75.5198Z" fill="#2E2E2E"/>
<path fill-rule="evenodd" clip-rule="evenodd" d="M204.296 91.3827H197.409C197.074 91.3827 196.803 91.1114 196.803 90.7766C196.803 90.4418 197.074 90.1704 197.409 90.1704H204.296C204.631 90.1704 204.903 90.4418 204.903 90.7766C204.903 91.1114 204.631 91.3827 204.296 91.3827Z" fill="#2E2E2E"/>
<path fill-rule="evenodd" clip-rule="evenodd" d="M193.203 91.3827H181.536C181.204 91.3827 180.933 91.1114 180.933 90.7766C180.933 90.4418 181.204 90.1704 181.536 90.1704H193.203C193.538 90.1704 193.809 90.4418 193.809 90.7766C193.809 91.1114 193.538 91.3827 193.203 91.3827Z" fill="#2E2E2E"/>
<path fill-rule="evenodd" clip-rule="evenodd" d="M200.117 95.6353H181.538C181.203 95.6353 180.935 95.3639 180.935 95.0291C180.935 94.6943 181.203 94.423 181.538 94.423H200.117C200.452 94.423 200.724 94.6943 200.724 95.0291C200.724 95.3639 200.452 95.6353 200.117 95.6353Z" fill="#2E2E2E"/>
<path fill-rule="evenodd" clip-rule="evenodd" d="M139.298 184.518C139.298 184.518 130.249 186.923 127.573 188.269C124.897 189.611 121.015 191.764 118.075 194.879C115.138 197.994 110.039 205.425 110.039 205.425L103.657 221.467L98.3497 235.297C98.3497 235.297 95.0926 247.811 94.4127 249.934C93.7303 252.06 94.6917 270.214 102.469 274.062C105.554 275.404 119.082 275.873 121.792 275.802C124.496 275.731 152.877 275.931 152.877 275.931L166.542 276.058L208.053 276.033L203.139 237.846C203.139 237.846 199.748 219.712 198.142 215.55C196.534 211.385 191.64 201.494 188.01 197.448C184.383 193.403 172.719 184.988 162.978 183.846C157.745 187.694 139.298 184.518 139.298 184.518Z" fill="#7A98D3"/>
<path fill-rule="evenodd" clip-rule="evenodd" d="M159.27 185.369C169.011 186.51 180.685 194.829 184.503 198.695C189.784 204.039 192.62 209.816 194.967 216.91C201.438 236.49 205.038 276.034 205.038 276.034L208.356 276.031C208.356 276.031 204.601 247.371 203.14 237.847C202.275 232.217 200.05 219.713 198.442 215.548C196.836 211.386 191.94 201.495 188.313 197.449C184.685 193.404 173.019 184.988 163.278 183.845C158.05 187.695 154.039 189.216 159.27 185.369Z" fill="white"/>
<path fill-rule="evenodd" clip-rule="evenodd" d="M166.78 258.302L166.542 268.993L167.095 275.25C167.095 275.25 171.976 275.884 173.855 275.82C175.732 275.757 176.58 276.041 179.274 274.755C181.968 273.472 184.444 272.155 185.443 271.813C186.448 271.468 186.577 271.275 186.978 271.306C188.931 271.46 192.855 274.167 193.855 275.075C194.849 275.983 195.595 276.333 196.501 275.737C197.404 275.138 197.183 275.957 196.942 275.351C196.699 274.742 196.988 273.652 196.988 273.652C196.988 273.652 198.474 274.397 199.699 274.004C200.92 273.611 201.328 273.832 201.257 272.822C201.186 271.816 200.575 269.086 200.575 269.086C200.575 269.086 201.49 269.452 202.424 268.868C203.357 268.282 203.583 267.146 203.236 266.081C202.891 265.016 199.715 261.645 198.86 260.278C198.007 258.908 193.213 256.266 191.303 255.88C189.39 255.495 182.376 256.004 181.065 256.129C179.753 256.255 166.78 258.302 166.78 258.302Z" fill="white"/>
<path fill-rule="evenodd" clip-rule="evenodd" d="M185.958 255.878L174.596 236.136C174.215 235.472 174.644 234.505 175.557 233.98L177.523 232.849C178.436 232.324 179.486 232.441 179.872 233.105L193.583 257.025L185.958 255.878Z" fill="#F5BF51"/>
<path fill-rule="evenodd" clip-rule="evenodd" d="M166.407 127.682C168.028 129.506 169.948 133.105 169.984 133.044C173.901 128.298 172.957 113.748 165.217 111.148C164.446 110.889 163.538 110.851 162.777 111.148C155.674 113.93 151.973 114.592 147.135 115.249C141.834 115.967 139.074 115.911 136.286 116.895C133.498 117.877 131.352 118.255 129.213 121.07C127.078 123.885 126.459 126.285 126.641 128.177C126.824 130.066 127.255 132.034 127.255 132.034C123.59 133.559 122.542 139.496 123.425 143.486C124.305 147.478 125.647 148.584 127.253 151.135C128.858 153.684 131.075 154.016 131.075 154.016C133.785 152.19 136.839 151.399 137.747 151.587C139.163 148.931 137.23 146.002 135.852 143.166C134.472 140.331 136.623 134.588 136.623 134.588C142.361 134.687 145.743 138.553 151.704 135.955C157.668 133.356 160.207 132.491 162.655 130.586C165.101 128.684 166.407 127.682 166.407 127.682Z" fill="#F1A53B"/>
<path fill-rule="evenodd" clip-rule="evenodd" d="M165.525 111.148C164.751 110.889 163.843 110.851 163.084 111.148C155.979 113.93 152.278 114.592 147.443 115.249C142.141 115.967 139.379 115.911 136.593 116.895C133.805 117.877 131.657 118.255 129.521 121.07C129.087 121.643 128.717 122.196 128.402 122.731C130.442 120.268 132.514 119.873 135.168 118.937C137.956 117.955 140.718 118.011 146.02 117.293C150.855 116.639 154.546 116.591 161.651 113.809C162.41 113.512 163.318 113.55 164.091 113.809C170.834 116.073 171.344 125.493 169.051 131.514C169.147 131.672 170.284 133.054 170.291 133.044C174.208 128.298 173.264 113.748 165.525 111.148Z" fill="white"/>
<path fill-rule="evenodd" clip-rule="evenodd" d="M165.265 185.171C165.151 183.421 164.28 176.984 164.222 175.551C170.292 174.549 171.799 171.419 172.981 169.162C174.164 166.907 175.122 163.344 174.587 160.521C174.052 157.7 172.345 144.469 172.345 144.469L169.983 133.045C169.983 133.045 168.494 127.858 166.594 128.148C164.118 130.184 154.676 132.667 151.414 133.507C148.152 134.346 136.863 134.308 136.863 134.308C136.863 134.308 135.217 142.051 135.542 144.649C135.867 147.248 136.823 150.18 136.468 151.989C133.079 152.638 130.621 153.736 130.225 156.206C129.827 158.674 131.075 161.647 132.297 162.362C133.515 163.077 135.582 162.74 137.493 163.105C138.794 167.077 139.157 170.927 139.453 173.504C139.75 176.083 139.448 183.182 139.268 185.83C144.918 191.342 153.636 193.216 158.563 191.955C166.561 189.911 165.379 186.921 165.265 185.171Z" fill="white"/>
<path fill-rule="evenodd" clip-rule="evenodd" d="M161.467 176.348C160.105 176.348 157.335 176.059 154.714 175.636C154.342 175.577 154.093 175.23 154.151 174.86C154.212 174.489 154.557 174.236 154.93 174.297C157.578 174.723 160.463 175.022 161.637 174.989C166.188 174.87 169.349 173.711 171.302 171.448C174.361 167.903 174.098 161.836 173.438 156.37C172.794 151.029 171.112 141.17 169.915 136.463C168.956 132.701 167.88 130.421 166.082 128.329C165.838 128.047 165.868 127.619 166.155 127.373C166.437 127.129 166.865 127.16 167.111 127.446C169.032 129.681 170.227 132.197 171.229 136.128C172.54 141.282 174.212 151.46 174.785 156.205C175.483 161.968 175.736 168.39 172.327 172.336C170.112 174.903 166.627 176.214 161.675 176.346C161.612 176.348 161.538 176.348 161.467 176.348Z" fill="#2E2E2E"/>
<path fill-rule="evenodd" clip-rule="evenodd" d="M135.804 164.234C134.485 164.234 133.207 163.833 132.103 163.062C130.685 162.071 129.737 160.587 129.435 158.882C129.133 157.178 129.516 155.458 130.505 154.038C131.5 152.62 132.984 151.674 134.688 151.373C135.569 151.215 136.454 151.241 137.319 151.446C137.682 151.535 137.907 151.9 137.821 152.265C137.735 152.628 137.367 152.854 137.004 152.767C136.322 152.605 135.622 152.585 134.924 152.709C133.577 152.948 132.403 153.696 131.619 154.817C130.835 155.938 130.533 157.297 130.774 158.644C131.01 159.993 131.758 161.168 132.882 161.951C134.003 162.735 135.363 163.034 136.71 162.796C137.469 162.662 138.169 162.37 138.79 161.926C139.095 161.71 139.518 161.781 139.736 162.086C139.955 162.39 139.881 162.814 139.577 163.032C138.79 163.592 137.905 163.963 136.946 164.133C136.565 164.201 136.182 164.234 135.804 164.234Z" fill="#2E2E2E"/>
<path fill-rule="evenodd" clip-rule="evenodd" d="M132.935 158.749C132.616 158.749 132.332 158.523 132.268 158.196C132.055 157.073 132.251 156.076 132.834 155.312C133.456 154.501 134.478 154.016 135.797 153.91C136.167 153.882 136.497 154.158 136.527 154.534C136.558 154.907 136.276 155.234 135.903 155.262C134.983 155.335 134.293 155.637 133.915 156.137C133.481 156.702 133.506 157.43 133.605 157.945C133.674 158.313 133.43 158.668 133.062 158.739C133.019 158.746 132.979 158.749 132.935 158.749Z" fill="#2E2E2E"/>
<path fill-rule="evenodd" clip-rule="evenodd" d="M166.753 147.759C166.966 148.962 167.709 149.832 168.414 149.71C169.119 149.583 169.518 148.508 169.305 147.308C169.092 146.106 168.348 145.233 167.646 145.36C166.938 145.484 166.54 146.557 166.753 147.759Z" fill="#2E2E2E"/>
<path fill-rule="evenodd" clip-rule="evenodd" d="M171.41 141.616C171.291 141.616 171.169 141.585 171.06 141.517C168.906 140.221 165.822 139.959 163.384 140.87C163.034 140.999 162.643 140.824 162.511 140.472C162.379 140.122 162.559 139.729 162.907 139.599C165.756 138.534 169.233 138.831 171.763 140.355C172.082 140.55 172.186 140.966 171.991 141.288C171.864 141.499 171.641 141.616 171.41 141.616Z" fill="#2E2E2E"/>
<path fill-rule="evenodd" clip-rule="evenodd" d="M151.122 150.527C151.335 151.729 150.937 152.802 150.231 152.927C149.526 153.053 148.783 152.181 148.57 150.979C148.357 149.779 148.755 148.704 149.463 148.577C150.165 148.455 150.909 149.325 151.122 150.527Z" fill="#2E2E2E"/>
<path fill-rule="evenodd" clip-rule="evenodd" d="M143.881 147.135C143.757 147.135 143.635 147.102 143.524 147.031C143.204 146.836 143.105 146.417 143.303 146.098C144.985 143.392 148.534 141.515 151.931 141.543C152.303 141.545 152.605 141.852 152.603 142.225C152.603 142.6 152.296 142.902 151.92 142.9H151.862C148.93 142.9 145.893 144.503 144.46 146.816C144.33 147.021 144.107 147.135 143.881 147.135Z" fill="#2E2E2E"/>
<path fill-rule="evenodd" clip-rule="evenodd" d="M162.974 159.676C162.631 159.676 162.337 159.417 162.299 159.069C162.258 158.697 162.527 158.362 162.9 158.321C164.034 158.197 164.513 157.854 164.719 157.586C164.914 157.329 164.975 156.992 164.904 156.553C164.744 155.582 163.501 154.781 162.438 154.595C160.805 154.309 159.739 152.234 159.278 148.43C159.232 148.057 159.498 147.719 159.869 147.674C160.242 147.628 160.581 147.892 160.625 148.265C160.985 151.23 161.751 153.096 162.672 153.259C164.242 153.535 165.975 154.679 166.241 156.335C166.375 157.149 166.226 157.847 165.799 158.407C165.267 159.105 164.343 159.528 163.047 159.67C163.024 159.676 162.999 159.676 162.974 159.676Z" fill="#2E2E2E"/>
<path fill-rule="evenodd" clip-rule="evenodd" d="M165.247 185.172C164.894 185.172 164.597 184.901 164.569 184.546C164.496 183.592 164.346 182.441 164.166 181.106C163.945 179.445 163.697 177.561 163.545 175.603C163.514 175.23 163.796 174.903 164.166 174.872C164.544 174.842 164.869 175.123 164.897 175.496C165.046 177.419 165.295 179.283 165.511 180.929C165.693 182.283 165.848 183.453 165.924 184.442C165.952 184.814 165.673 185.142 165.3 185.17C165.282 185.172 165.265 185.172 165.247 185.172Z" fill="#2E2E2E"/>
<path fill-rule="evenodd" clip-rule="evenodd" d="M139.3 185.197H139.265C138.892 185.179 138.603 184.86 138.621 184.484C139.057 175.635 138.603 170.137 136.875 163.469C136.781 163.106 137 162.736 137.362 162.642C137.725 162.548 138.093 162.766 138.189 163.129C139.952 169.944 140.419 175.551 139.978 184.553C139.96 184.915 139.661 185.197 139.3 185.197Z" fill="#2E2E2E"/>
<path fill-rule="evenodd" clip-rule="evenodd" d="M130.919 155.142C130.843 155.142 130.762 155.129 130.686 155.101C129.113 154.525 127.472 153.064 126.056 150.982C124.636 148.897 123.581 146.369 123.081 143.865C122.114 139.034 123.233 134.775 126.221 131.82C125.326 128.249 125.64 125.099 127.168 122.451C129.527 118.353 133.93 116.811 135.719 116.339C138.372 115.636 141.036 115.36 143.857 115.068C147.099 114.731 150.455 114.383 154.009 113.339C155.269 112.968 156.657 112.431 158.004 111.908C160.952 110.767 163.499 109.783 165.049 110.275C168.207 111.279 170.548 113.856 171.817 117.726C172.674 120.334 172.994 123.441 172.715 126.471C172.448 129.363 171.654 131.904 170.533 133.444C170.312 133.746 169.886 133.814 169.584 133.593C169.282 133.373 169.216 132.949 169.437 132.645C170.414 131.298 171.119 129.003 171.36 126.347C171.624 123.496 171.329 120.585 170.528 118.147C169.742 115.751 168.08 112.661 164.638 111.568C163.542 111.221 160.86 112.258 158.494 113.174C157.124 113.704 155.706 114.252 154.392 114.64C150.719 115.72 147.302 116.075 143.994 116.418C141.229 116.704 138.618 116.976 136.064 117.65C134.798 117.985 130.506 119.37 128.342 123.126C126.949 125.548 126.711 128.485 127.637 131.856L127.746 132.254L127.442 132.533C123.588 136.081 123.89 140.989 124.413 143.599C125.336 148.22 128.357 152.806 131.153 153.825C131.503 153.955 131.685 154.345 131.556 154.695C131.457 154.972 131.196 155.142 130.919 155.142Z" fill="#2E2E2E"/>
<path fill-rule="evenodd" clip-rule="evenodd" d="M161.838 166.56C160.499 166.56 159.137 166.263 157.881 165.657C157.549 165.495 157.409 165.094 157.569 164.762C157.731 164.429 158.132 164.29 158.465 164.45C161.072 165.715 164.342 165.37 166.417 163.618C166.696 163.379 167.12 163.415 167.358 163.696C167.599 163.978 167.561 164.399 167.282 164.64C165.786 165.905 163.832 166.56 161.838 166.56Z" fill="#2E2E2E"/>
<path fill-rule="evenodd" clip-rule="evenodd" d="M186.137 244.262C185.815 244.262 185.544 244.011 185.523 243.684L184.575 228.854C184.552 228.517 184.811 228.223 185.148 228.2C185.49 228.182 185.782 228.438 185.802 228.778L186.751 243.605C186.774 243.945 186.515 244.239 186.178 244.262C186.163 244.262 186.15 244.262 186.137 244.262Z" fill="#2E2E2E"/>
<path fill-rule="evenodd" clip-rule="evenodd" d="M201.774 270C200.772 270 199.577 269.47 198.679 268.326C198.469 268.06 198.514 267.672 198.781 267.464C199.049 267.253 199.438 267.299 199.648 267.565C200.632 268.818 201.908 268.927 202.314 268.631C203.319 267.905 202.954 266.726 200.673 263.373C199.831 262.13 197.827 259.848 196.206 258.891C193.453 257.268 192.279 256.903 188.819 256.601C180.907 255.904 166.858 258.914 166.719 258.945C166.387 259.016 166.059 258.805 165.988 258.473C165.915 258.141 166.125 257.811 166.458 257.74C167.044 257.613 180.831 254.663 188.925 255.374C192.578 255.693 193.908 256.106 196.83 257.829C198.636 258.894 200.762 261.306 201.695 262.681C203.387 265.171 205.303 267.994 203.035 269.63C202.7 269.873 202.258 270 201.774 270Z" fill="#2E2E2E"/>
<path fill-rule="evenodd" clip-rule="evenodd" d="M174.175 276.673C171.78 276.673 166.719 275.813 166.486 275.773C166.151 275.717 165.925 275.397 165.984 275.062C166.04 274.728 166.357 274.502 166.694 274.56C166.752 274.568 172.742 275.587 174.626 275.425C179.395 275.019 181.79 273.272 183.538 271.996C184.22 271.499 184.809 271.07 185.408 270.827C187.16 270.112 189.139 271.463 191.645 273.178C192.457 273.731 193.297 274.307 194.228 274.887C195.126 275.445 195.562 275.354 195.965 275.202C196.655 274.946 196.792 274.598 196.838 274.357C197.097 272.919 194.692 270.066 192.345 268.022C190.382 266.421 188.708 265.584 186.384 265.047C186.054 264.968 185.849 264.636 185.925 264.306C186.001 263.974 186.333 263.768 186.666 263.844C189.192 264.433 191.006 265.338 193.132 267.073L193.147 267.086C194.415 268.189 198.517 271.991 198.048 274.578C197.947 275.146 197.576 275.917 196.397 276.356C195.737 276.605 194.885 276.747 193.576 275.932C192.622 275.339 191.734 274.73 190.948 274.192C188.748 272.691 187.013 271.501 185.872 271.968C185.415 272.153 184.882 272.544 184.266 272.993C182.503 274.276 179.839 276.216 174.733 276.653C174.568 276.668 174.383 276.673 174.175 276.673Z" fill="#2E2E2E"/>
<path fill-rule="evenodd" clip-rule="evenodd" d="M167.211 276.732L128.836 276.372C122.491 276.499 116.144 276.253 110.964 275.675C104.673 274.977 100.371 273.851 98.1868 272.327C94.6506 269.864 92.7937 265.524 92.6618 259.43C92.5527 254.431 93.5953 248.288 95.7642 241.171C99.856 227.731 102.979 218.707 108.679 206.683C112.091 199.49 115.5 194.97 120.084 191.566C124.574 188.231 130.274 185.928 139.147 183.866L139.769 183.724L139.941 184.335C140.421 186.019 142.476 188.051 145.177 189.507C147.889 190.968 153.51 193.08 160.712 190.813C164.22 189.707 164.852 185.606 164.601 184.723C164.525 184.465 164.588 184.196 164.766 184.001C164.948 183.803 165.233 183.714 165.507 183.767C170.986 184.858 182.092 189.854 188.515 197.111C199.489 209.508 202.152 226.96 203.745 237.389L203.801 237.747C205.214 246.999 207.269 261.223 208.286 269.354C208.332 269.722 208.07 270.057 207.705 270.102C207.337 270.148 207.005 269.889 206.959 269.522C205.942 261.403 203.89 247.195 202.477 237.947L202.424 237.59C200.853 227.308 198.225 210.099 187.513 197.998C181.569 191.285 171.496 186.572 165.986 185.243C165.981 186.063 165.773 187.161 165.255 188.292C164.647 189.621 163.437 191.358 161.115 192.089C158.071 193.045 154.982 193.349 151.927 192.989C149.33 192.685 146.775 191.888 144.543 190.684C141.791 189.2 139.683 187.189 138.871 185.307C122.656 189.157 116.106 194.146 109.886 207.256C104.222 219.204 101.117 228.183 97.0453 241.559C94.9195 248.541 93.8947 254.542 94.0012 259.402C94.123 265.045 95.7896 269.025 98.9504 271.229C100.924 272.603 105.127 273.681 111.114 274.346C116.238 274.916 122.529 275.16 128.82 275.036H128.83H128.841L165.874 275.383V257.231L124.008 253.832L129.668 235.393C129.774 235.041 130.152 234.84 130.502 234.95C130.857 235.059 131.055 235.431 130.946 235.784L125.776 252.635L167.211 255.996V276.732Z" fill="#2E2E2E"/>
<path fill-rule="evenodd" clip-rule="evenodd" d="M199.33 274.97C198.655 274.97 197.95 274.785 197.356 274.529C197.044 274.394 196.897 274.032 197.034 273.72C197.166 273.408 197.529 273.263 197.841 273.398C198.815 273.816 199.784 273.852 200.195 273.484C200.639 273.086 201.38 272.424 198.967 268.779L198.807 268.536C197.97 267.26 197.103 265.944 195.154 264.478C194.85 264.249 194.581 264.044 194.332 263.856C192.531 262.481 192.103 262.157 189.634 261.548C189.305 261.467 189.102 261.132 189.183 260.802C189.264 260.473 189.599 260.272 189.929 260.351C192.648 261.021 193.211 261.452 195.081 262.877C195.324 263.062 195.593 263.268 195.895 263.493C198.013 265.089 198.982 266.56 199.837 267.858L199.997 268.099C202.151 271.361 202.44 273.126 201.017 274.399C200.56 274.81 199.959 274.97 199.33 274.97Z" fill="#2E2E2E"/>
<path fill-rule="evenodd" clip-rule="evenodd" d="M193.347 257.23C193.134 257.23 192.926 257.118 192.812 256.92L179.337 233.411C179.151 233.094 178.489 233.005 177.83 233.383L175.864 234.512C175.539 234.7 175.28 234.971 175.153 235.255C175.098 235.384 175.017 235.631 175.131 235.828L186.493 255.571C186.66 255.865 186.559 256.243 186.264 256.413C185.97 256.583 185.592 256.481 185.425 256.185L174.063 236.445C173.781 235.953 173.768 235.339 174.027 234.755C174.263 234.228 174.694 233.764 175.25 233.447L177.216 232.316C178.441 231.611 179.844 231.824 180.402 232.8L193.88 256.306C194.05 256.601 193.946 256.978 193.651 257.148C193.555 257.204 193.451 257.23 193.347 257.23Z" fill="#2E2E2E"/>
<path fill-rule="evenodd" clip-rule="evenodd" d="M179.224 238.286C178.993 238.286 178.767 238.166 178.643 237.951C178.46 237.629 178.569 237.22 178.892 237.035L181.299 235.65C181.621 235.468 182.029 235.577 182.215 235.899C182.4 236.218 182.288 236.627 181.969 236.809L179.559 238.197C179.452 238.258 179.338 238.286 179.224 238.286Z" fill="#2E2E2E"/>
<path fill-rule="evenodd" clip-rule="evenodd" d="M137.162 152.786C136.898 152.786 136.65 152.632 136.538 152.375C134.346 147.293 134.156 141.419 135.965 134.421L136.112 133.855L136.69 133.916C141.266 134.393 147.398 133.721 153.955 132.029C159.188 130.68 164.224 128.747 166.2 127.337C166.504 127.119 166.928 127.19 167.146 127.494C167.364 127.799 167.296 128.222 166.991 128.44C164.858 129.962 159.757 131.933 154.295 133.343C150.528 134.314 143.387 135.834 137.137 135.319C135.559 141.766 135.772 147.176 137.783 151.838C137.933 152.183 137.773 152.581 137.428 152.73C137.342 152.769 137.251 152.786 137.162 152.786Z" fill="white"/>
<path fill-rule="evenodd" clip-rule="evenodd" d="M365.267 76.7445H333.682C333.309 76.7445 333.013 76.4452 333.013 76.0749C333.013 75.7046 333.309 75.4053 333.682 75.4053H365.267C365.638 75.4053 365.939 75.7046 365.939 76.0749C365.939 76.4452 365.638 76.7445 365.267 76.7445Z" fill="white"/>
<path fill-rule="evenodd" clip-rule="evenodd" d="M57.0098 205.013C55.9647 205.918 54.5238 207.166 53.3925 208.135L56.5304 207.983L57.0098 205.013ZM49.5018 209.662L51.0366 208.386C52.2922 207.338 57.4773 202.839 57.528 202.793L58.9232 201.584L57.6802 209.269L49.5018 209.662Z" fill="white"/>
<path fill-rule="evenodd" clip-rule="evenodd" d="M235.837 233.189C235.809 233.189 235.781 233.189 235.753 233.184C235.698 233.177 234.449 233.007 233.349 232.038C232.925 231.665 232.689 231.3 232.415 230.874C231.991 230.217 231.413 229.316 229.642 227.752C229.363 227.508 229.338 227.085 229.584 226.808C229.828 226.532 230.251 226.504 230.528 226.75C232.435 228.436 233.075 229.428 233.541 230.151C233.785 230.531 233.95 230.785 234.229 231.031C235.015 231.721 235.918 231.855 235.926 231.858C236.291 231.909 236.547 232.243 236.499 232.609C236.453 232.946 236.169 233.189 235.837 233.189Z" fill="white"/>
<path fill-rule="evenodd" clip-rule="evenodd" d="M97.9226 177.282C97.7298 177.282 97.5395 177.199 97.4076 177.041C97.1717 176.755 97.2097 176.334 97.4938 176.098C99.6754 174.287 101.672 174.533 102.519 174.639C102.575 174.644 102.626 174.65 102.669 174.657C103.075 174.7 104.054 174.378 104.622 174.135C104.959 173.988 105.355 174.145 105.5 174.482C105.647 174.822 105.49 175.215 105.152 175.362C104.868 175.484 103.417 176.085 102.519 175.986C102.471 175.981 102.415 175.974 102.357 175.966C101.563 175.867 100.086 175.687 98.3487 177.128C98.2244 177.231 98.0748 177.282 97.9226 177.282Z" fill="white"/>
<path fill-rule="evenodd" clip-rule="evenodd" d="M108.114 272.699C107.886 272.699 107.662 272.58 107.536 272.369C106.222 270.132 105.871 265.574 108.289 263.233C108.558 262.977 108.981 262.985 109.235 263.249C109.494 263.515 109.486 263.939 109.222 264.195C107.328 266.026 107.647 269.919 108.692 271.689C108.88 272.009 108.773 272.42 108.454 272.605C108.347 272.668 108.231 272.699 108.114 272.699Z" fill="#2E2E2E"/>
<path fill-rule="evenodd" clip-rule="evenodd" d="M206.439 276.213C206.439 276.213 203.763 275.133 203.763 273.238C203.763 271.346 203.679 269.18 211.041 269.36C218.405 269.54 264.667 269.33 264.667 269.33C264.667 269.33 274.814 227.245 278.723 209.669C279 208.436 279.806 206.032 282.348 206.151C286.638 206.356 364.673 206.032 364.673 206.032C364.673 206.032 366.966 207.153 366.913 208.956C366.854 210.759 351.789 274.862 351.789 274.862C351.789 274.862 351.007 275.823 349.835 276.003C348.663 276.183 206.439 276.213 206.439 276.213Z" fill="#EA3346"/>
<path fill-rule="evenodd" clip-rule="evenodd" d="M205.349 275.194C205.349 273.299 205.349 271.768 213.867 271.813C221.232 271.851 267.494 271.783 267.494 271.783C267.494 271.783 277.638 229.698 281.55 212.119C281.821 210.889 282.633 208.485 285.175 208.604C289.295 208.799 361.366 208.51 367.129 208.485C366.67 207.133 365.011 206.319 365.011 206.319C365.011 206.319 286.443 206.656 282.154 206.453C279.609 206.334 279.338 208.723 279.066 209.956C275.155 227.532 265.01 269.619 265.01 269.619C265.01 269.619 218.743 269.83 211.381 269.647C204.02 269.467 204.104 271.633 204.104 273.525C204.104 275.339 206.554 276.406 206.762 276.493C206.655 276.244 205.349 275.481 205.349 275.194Z" fill="white"/>
<path fill-rule="evenodd" clip-rule="evenodd" d="M349.366 276.793H267.044C266.673 276.793 266.374 276.494 266.374 276.123C266.374 275.753 266.673 275.454 267.044 275.454H349.366C350.157 275.454 351.111 275.177 351.497 273.011L351.502 272.978L366.225 209.008C366.309 208.58 366.329 207.981 365.971 207.53C365.624 207.096 364.969 206.85 364.081 206.822H281.77C281.008 206.822 280.159 207.116 279.629 209.305L265.796 269.423C265.709 269.783 265.352 270.008 264.992 269.925C264.631 269.841 264.408 269.483 264.489 269.123L278.327 208.998C278.538 208.123 279.177 205.483 281.77 205.483H364.102H364.109C365.756 205.533 366.6 206.17 367.019 206.695C367.557 207.372 367.734 208.265 367.536 209.277L367.531 209.297L352.811 273.262C352.286 276.179 350.649 276.793 349.366 276.793Z" fill="#2E2E2E"/>
<path fill-rule="evenodd" clip-rule="evenodd" d="M260.813 276.793H206.796C204.721 276.793 203.031 274.997 203.031 272.788C203.031 270.473 204.802 268.783 207.245 268.768H265.059C265.427 268.768 265.727 269.07 265.727 269.438C265.727 269.808 265.427 270.107 265.059 270.107H207.247C205.555 270.117 204.368 271.218 204.368 272.788C204.368 274.257 205.459 275.454 206.796 275.454H260.813C261.183 275.454 261.483 275.753 261.483 276.123C261.483 276.494 261.183 276.793 260.813 276.793Z" fill="#2E2E2E"/>
<path fill-rule="evenodd" clip-rule="evenodd" d="M322.046 247.71C324.324 243.454 323.553 238.374 320.319 236.362C317.087 234.351 312.617 236.17 310.339 240.426C308.059 244.682 308.832 249.762 312.064 251.773C315.299 253.784 319.768 251.966 322.046 247.71Z" fill="white"/>
<path fill-rule="evenodd" clip-rule="evenodd" d="M317.431 236.211C316.959 236.211 316.477 236.277 315.988 236.409C313.959 236.949 312.114 238.529 310.93 240.741C308.817 244.685 309.484 249.377 312.419 251.206C313.586 251.931 314.963 252.114 316.399 251.728C318.428 251.185 320.27 249.605 321.457 247.394C323.568 243.45 322.9 238.758 319.965 236.931C319.197 236.452 318.337 236.211 317.431 236.211ZM314.968 253.26C313.806 253.26 312.688 252.948 311.711 252.339C309.979 251.264 308.829 249.38 308.474 247.041C308.127 244.756 308.581 242.293 309.75 240.109C311.11 237.573 313.256 235.752 315.641 235.113C317.416 234.639 319.205 234.882 320.673 235.795C322.406 236.873 323.555 238.755 323.913 241.093C324.258 243.381 323.806 245.841 322.637 248.025C321.277 250.564 319.131 252.383 316.744 253.022C316.15 253.179 315.554 253.26 314.968 253.26Z" fill="#2E2E2E"/>
<path fill-rule="evenodd" clip-rule="evenodd" d="M375.413 276.527H75.5872C75.2625 276.527 75 276.291 75 275.999C75 275.709 75.2625 275.473 75.5872 275.473H375.413C375.738 275.473 376 275.709 376 275.999C376 276.291 375.738 276.527 375.413 276.527Z" fill="#2E2E2E"/>
<path fill-rule="evenodd" clip-rule="evenodd" d="M298.037 81.0877C295.856 82.0718 293.948 82.4954 292.441 81.3819C291.287 80.5297 291.734 79.2464 292.02 78.625C292.383 77.8387 292.992 78.1887 295.607 77.1311C297.517 76.3575 300.194 73.5448 301.188 74.714C302.043 75.7209 301.505 79.5254 298.037 81.0877Z" fill="#2E2E2E"/>
<path fill-rule="evenodd" clip-rule="evenodd" d="M294.697 81.4047C294.545 79.3123 296.762 76.7152 300.034 78.0163C298.771 80.2812 295.841 81.6026 294.697 81.4047Z" fill="white"/>
<path fill-rule="evenodd" clip-rule="evenodd" d="M292.634 79.6288C292.631 80.0396 292.903 80.3161 293.136 80.4784C293.851 80.9755 295.419 81.2139 297.476 80.2628C299.818 79.1798 300.368 77.4247 300.48 76.9124C300.63 76.2327 300.505 75.7736 300.386 75.6341C300.361 75.6037 300.345 75.5961 300.345 75.5961C300.074 75.5479 299.141 76.2885 298.641 76.6841C298.024 77.1736 297.388 77.6784 296.705 78.0334C295.721 78.5458 294.762 78.8527 293.991 79.0987C293.494 79.2585 292.822 79.4715 292.634 79.6288ZM295.994 82.373C294.538 82.6317 293.199 82.4314 292.245 81.7719C291.431 81.2089 291.002 80.3643 291.071 79.4538C291.149 78.3581 292.245 78.0081 293.513 77.6023C294.264 77.3639 295.114 77.0925 295.982 76.641C296.53 76.3544 297.108 75.8979 297.664 75.454C298.277 74.9696 298.856 74.508 299.424 74.2493C300.581 73.7217 301.271 74.2518 301.58 74.6145C302.093 75.2156 302.25 76.1769 302.014 77.2497C301.608 79.0936 300.16 80.7523 298.135 81.6882C297.417 82.0205 296.695 82.2487 295.994 82.373Z" fill="#2E2E2E"/>
<path fill-rule="evenodd" clip-rule="evenodd" d="M294.834 82.1775C294.502 82.2359 294.157 82.0735 293.997 81.7565C293.231 80.2373 293.759 78.4314 295.309 77.2647C296.79 76.1488 299.101 75.781 300.925 77.4651C301.244 77.7593 301.265 78.2564 300.971 78.576C300.676 78.8956 300.179 78.9133 299.859 78.6191C298.619 77.4753 297.143 77.8481 296.257 78.5177C295.542 79.0554 294.89 80.0394 295.402 81.0514C295.595 81.4395 295.438 81.9112 295.052 82.1065C294.984 82.1395 294.908 82.1648 294.834 82.1775Z" fill="#2E2E2E"/>
<path fill-rule="evenodd" clip-rule="evenodd" d="M296.434 90.8402C291.292 91.7507 286.371 90.6094 282.162 87.5151C278.101 84.535 275.09 79.9646 273.677 74.6511C273.565 74.2326 273.816 73.8014 274.235 73.6898C274.654 73.5782 275.085 73.8268 275.196 74.2478C277.637 83.4342 285.853 91.5047 296.827 89.1637C306.561 87.084 312.575 78.4783 311.796 67.7524C311.763 67.3212 312.088 66.9458 312.522 66.9129C312.953 66.8824 313.329 67.2071 313.362 67.6408C313.765 73.1927 312.494 78.3109 309.683 82.4426C306.774 86.7137 302.443 89.5695 297.154 90.6982C296.913 90.7514 296.675 90.7971 296.434 90.8402Z" fill="#2E2E2E"/>
<path fill-rule="evenodd" clip-rule="evenodd" d="M272.169 76.253C268.524 76.8972 265.018 74.3914 264.356 70.6656C263.696 66.9398 266.127 63.3813 269.777 62.7371C269.99 62.6991 270.208 62.6712 270.424 62.6534C270.855 62.6205 271.233 62.9451 271.269 63.3763C271.299 63.81 270.977 64.1879 270.543 64.2209C270.381 64.2335 270.213 64.2538 270.051 64.2817C267.256 64.7788 265.394 67.518 265.903 70.3916C266.411 73.2653 269.1 75.2004 271.898 74.7059C272.654 74.5714 273.356 74.2747 273.975 73.8232C274.328 73.5671 274.818 73.6457 275.074 73.9957C275.327 74.3483 275.251 74.8378 274.899 75.0914C274.084 75.6849 273.166 76.0755 272.169 76.253Z" fill="#2E2E2E"/>
<path fill-rule="evenodd" clip-rule="evenodd" d="M267.935 70.5241C267.511 70.5976 267.105 70.3186 267.027 69.8951C266.796 68.6802 267.006 67.6099 267.63 66.7932C268.087 66.1997 268.987 65.4642 270.705 65.3323C271.136 65.2993 271.514 65.6214 271.547 66.0551C271.58 66.4863 271.258 66.8667 270.827 66.8972C269.924 66.9682 269.251 67.2624 268.878 67.7468C268.44 68.3175 268.467 69.0733 268.569 69.6059C268.648 70.032 268.369 70.4404 267.942 70.5215C267.94 70.5241 267.937 70.5241 267.935 70.5241Z" fill="#2E2E2E"/>
<path fill-rule="evenodd" clip-rule="evenodd" d="M315.325 68.612C314.328 68.787 313.334 68.7362 312.362 68.4598C311.946 68.3406 311.703 67.9069 311.822 67.4884C311.944 67.0724 312.377 66.8315 312.793 66.9507C313.534 67.1612 314.293 67.1993 315.054 67.0648C317.847 66.5703 319.709 63.8285 319.196 60.9549C318.689 58.0813 316.002 56.1461 313.204 56.6407C313.027 56.6737 312.847 56.7168 312.672 56.7675C312.256 56.8867 311.819 56.6483 311.698 56.2323C311.576 55.8139 311.817 55.3801 312.233 55.2584C312.461 55.1899 312.697 55.1367 312.933 55.0961C316.578 54.4493 320.084 56.9552 320.746 60.6835C321.403 64.4093 318.973 67.9652 315.325 68.612Z" fill="#2E2E2E"/>
<path fill-rule="evenodd" clip-rule="evenodd" d="M317.335 61.7769C317.332 61.7769 317.33 61.7769 317.327 61.7769C316.898 61.8479 316.495 61.5588 316.424 61.1327C316.335 60.5975 316.104 59.8798 315.496 59.4943C314.978 59.1645 314.245 59.1214 313.375 59.3649C312.956 59.4816 312.525 59.2381 312.408 58.8196C312.292 58.4011 312.533 57.97 312.949 57.8533C314.61 57.3866 315.709 57.767 316.338 58.1678C317.205 58.7207 317.771 59.6566 317.974 60.8765C318.042 61.3001 317.758 61.7008 317.335 61.7769Z" fill="#2E2E2E"/>
<path fill-rule="evenodd" clip-rule="evenodd" d="M283.632 63.3709C283.852 64.6289 283.452 65.7525 282.731 65.8818C282.008 66.0086 281.245 65.093 281.021 63.835C280.798 62.577 281.201 61.4509 281.922 61.3241C282.642 61.1973 283.408 62.1129 283.632 63.3709Z" fill="#2E2E2E"/>
<path fill-rule="evenodd" clip-rule="evenodd" d="M300.596 60.3677C300.819 61.6257 301.583 62.5413 302.303 62.4145C303.023 62.2877 303.427 61.1641 303.204 59.9061C302.98 58.6481 302.217 57.73 301.496 57.8593C300.776 57.9861 300.373 59.1097 300.596 60.3677Z" fill="#2E2E2E"/>
<path fill-rule="evenodd" clip-rule="evenodd" d="M292.956 73.1072C292.918 73.1123 292.879 73.1174 292.839 73.1174C291.842 73.1453 289.501 73.2061 288.993 70.8956C288.62 69.2089 289.762 67.8977 290.771 66.7411L290.827 66.6777C291.68 65.6987 291.801 63.6646 291.17 60.9508C291.071 60.5298 291.332 60.1062 291.756 60.0073C292.177 59.9109 292.6 60.1722 292.697 60.5957C293.468 63.9081 293.237 66.2998 292.012 67.71L291.954 67.7709C290.941 68.935 290.34 69.7061 290.525 70.5608C290.7 71.3496 291.251 71.5905 292.798 71.5499C293.232 71.5373 293.592 71.8797 293.605 72.3134C293.615 72.7065 293.331 73.0413 292.956 73.1072Z" fill="#2E2E2E"/>
<path fill-rule="evenodd" clip-rule="evenodd" d="M286.265 95.4113C285.668 95.5179 282.056 96.1139 277.665 95.9085C271.343 95.6168 266.476 93.7602 263.589 90.5442C258.995 85.426 258.607 74.6645 258.784 68.7042C259.045 59.9819 260.73 50.4506 263.178 43.8334C266.242 35.5524 271.067 29.8026 277.125 27.1979C282.437 24.9178 288.436 25.1384 294.971 27.8598C299.91 25.5493 304.392 26.0134 308.666 29.2726C312.4 32.1208 316.099 37.2111 320.305 45.2892C324.483 53.309 327.101 59.9718 328.303 65.6607C329.965 73.4902 328.912 79.5621 325.178 83.7064C321.832 87.4195 314.831 89.6489 309.103 91.1783C308.684 91.2873 308.255 91.0413 308.141 90.6203C308.03 90.2018 308.281 89.7706 308.699 89.659C312.243 88.713 320.551 86.4963 324.011 82.6564C327.39 78.9052 328.316 73.2975 326.768 65.9853C325.594 60.4385 323.024 53.9075 318.912 46.0121C314.815 38.147 311.259 33.2241 307.715 30.5229C303.814 27.5453 299.879 27.1953 295.336 29.4247L295.011 29.5845L294.679 29.4425C288.431 26.7667 282.733 26.4979 277.746 28.641C272.092 31.0708 267.564 36.5111 264.652 44.3762C262.254 50.8488 260.611 60.1874 260.354 68.7524C260.06 78.6363 261.623 86.0042 264.756 89.4942C270.968 96.4132 285.326 93.9834 286.029 93.8591C286.057 93.8541 286.057 93.8515 286.064 93.8515C286.488 93.7754 286.894 94.057 286.972 94.4805C287.053 94.9066 286.769 95.3175 286.343 95.3961C286.333 95.3987 286.308 95.4037 286.265 95.4113Z" fill="#2E2E2E"/>
<path fill-rule="evenodd" clip-rule="evenodd" d="M312.59 56.7849C312.169 56.8585 311.766 56.582 311.682 56.161C311.363 54.5251 308.154 52.9982 305.049 51.5221C301.962 50.0511 298.778 48.5369 296.972 46.4419C294.643 50.1982 291.665 53.4979 288.111 56.2599C283.22 60.0618 277.345 62.7351 270.653 64.2036C270.23 64.2923 269.811 64.0286 269.717 63.605C269.626 63.1814 269.892 62.763 270.316 62.6691C284.854 59.4785 292.355 51.2279 296.086 44.8694C296.256 44.5803 296.556 44.4028 296.886 44.3952C297.218 44.3875 297.53 44.5499 297.718 44.8339C299.115 46.9568 302.474 48.5572 305.723 50.1043C309.493 51.8975 312.75 53.4472 313.225 55.8617C313.306 56.2878 313.029 56.6987 312.603 56.7824C312.598 56.7849 312.593 56.7849 312.59 56.7849Z" fill="#2E2E2E"/>
<path fill-rule="evenodd" clip-rule="evenodd" d="M306.749 54.9099C306.569 54.9428 306.379 54.9124 306.209 54.8084C302.764 52.7414 298.921 52.9823 295.666 55.478C295.321 55.7418 294.829 55.6758 294.565 55.3334C294.301 54.9885 294.367 54.4939 294.712 54.2302C296.556 52.8149 298.657 51.9982 300.775 51.8663C302.896 51.7319 305.057 52.2848 307.015 53.4642C307.388 53.6874 307.51 54.1693 307.287 54.5421C307.162 54.745 306.965 54.8718 306.749 54.9099Z" fill="#2E2E2E"/>
<path fill-rule="evenodd" clip-rule="evenodd" d="M273.333 57.6308C272.945 57.6992 272.554 57.4659 272.443 57.0753C272.323 56.6594 272.562 56.2231 272.978 56.1039C279.426 54.2347 285.492 49.7886 286.905 46.9657C287.097 46.5776 287.567 46.4204 287.957 46.6157C288.343 46.8084 288.5 47.2802 288.307 47.6682C286.524 51.2368 279.708 55.7894 273.417 57.613C273.389 57.6206 273.361 57.6257 273.333 57.6308Z" fill="#2E2E2E"/>
<path fill-rule="evenodd" clip-rule="evenodd" d="M242.179 171.652C241.692 171.652 241.228 171.624 240.777 171.566C237.433 171.153 234.524 169.684 232.131 167.201C229.356 164.322 227.253 160.036 225.878 154.466C222.9 142.381 219.217 107.755 219.179 107.408L219.11 106.759L242.301 103.728L249.607 135.634C253.455 131.437 256.083 128.348 258.227 125.829C260.88 122.712 262.975 120.249 266.032 117.229C271.329 111.994 277.016 108.41 280.854 106.328C284.18 104.522 286.686 103.515 287.62 103.162C287.851 100.842 285.824 91.3432 284.819 89.2203C284.665 88.8855 284.804 88.4873 285.139 88.33C285.474 88.1703 285.872 88.3148 286.032 88.6496C287.239 91.2087 289.266 101.298 288.893 103.751L288.832 104.149L288.452 104.281C288.424 104.291 285.537 105.305 281.463 107.52C277.711 109.561 272.148 113.064 266.971 118.18C263.96 121.16 261.877 123.605 259.246 126.696C256.941 129.408 254.069 132.778 249.731 137.476L248.869 138.409L241.266 105.214L220.579 107.918C221.102 112.744 224.445 143.063 227.18 154.147C229.607 163.993 234.237 169.408 240.939 170.239C245.13 170.757 250.929 168.616 260.327 163.077C260.644 162.889 261.055 162.993 261.243 163.313C261.431 163.63 261.327 164.043 261.007 164.228C252.301 169.359 246.532 171.652 242.179 171.652Z" fill="#2E2E2E"/>
</g>
<g clip-path="url(#clip0_35_235)">
<path d="M34 246H112.98V299.499H34V246Z" fill="white"/>
<path d="M35.5183 247.466H111.459V297.955H35.5183V247.466Z" fill="#034EA2"/>
<path d="M71.871 258.468L73.4723 257.301L75.0763 258.468L74.4658 256.58L76.0938 255.416H74.0882L73.4723 253.506L72.8591 255.418L70.8535 255.416L72.4816 256.58L71.871 258.468Z" fill="#FFF200"/>
<path d="M63.5782 260.69L65.1822 259.523L66.7834 260.69L66.1729 258.804L67.801 257.638H65.7927L65.1795 255.726L64.5663 257.64L62.5607 257.638L64.186 258.804L63.5782 260.69Z" fill="#FFF200"/>
<path d="M59.1144 261.79L58.4985 263.705L56.4929 263.702L58.121 264.869L57.5105 266.754L59.1144 265.587L60.7157 266.754L60.1052 264.869L61.7332 263.702H59.7276L59.1144 261.79Z" fill="#FFF200"/>
<path d="M56.8865 273.847L58.4878 275.014L57.88 273.128L59.5053 271.961H57.5024L56.8865 270.049L56.2733 271.964L54.2677 271.961L55.8958 273.128L55.2852 275.014L56.8865 273.847Z" fill="#FFF200"/>
<path d="M59.7276 280.245L59.1144 278.336L58.4985 280.248L56.4929 280.245L58.121 281.412L57.5105 283.297L59.1144 282.13L60.7157 283.297L60.1052 281.412L61.7332 280.245H59.7276Z" fill="#FFF200"/>
<path d="M65.806 286.309L65.1928 284.4L64.5796 286.309H62.574L64.1994 287.474L63.5915 289.362L65.1928 288.195L66.7941 289.362L66.1862 287.474L67.8116 286.309H65.806Z" fill="#FFF200"/>
<path d="M74.0882 288.505L73.475 286.595L72.8618 288.507L70.8562 288.505L72.4816 289.671L71.8737 291.557L73.475 290.39L75.0763 291.557L74.4658 289.671L76.0938 288.505H74.0882Z" fill="#FFF200"/>
<path d="M82.3704 286.309L81.7572 284.4L81.1414 286.309H79.1384L80.7638 287.474L80.156 289.362L81.7572 288.195L83.3612 289.362L82.748 287.474L84.3761 286.309H82.3704Z" fill="#FFF200"/>
<path d="M88.4516 280.245L87.8357 278.336L87.2225 280.248L85.2169 280.245L86.845 281.412L86.2345 283.297L87.8357 282.13L89.4397 283.297L88.8292 281.412L90.4572 280.245H88.4516Z" fill="#FFF200"/>
<path d="M92.6583 271.937H90.6527L90.0368 270.028L89.4236 271.94L87.418 271.937L89.046 273.104L88.4382 274.99L90.0368 273.823L91.6407 274.99L91.0302 273.104L92.6583 271.937Z" fill="#FFF200"/>
<path d="M86.2345 266.728L87.8357 265.563L89.4397 266.728L88.8292 264.842L90.4572 263.678H88.4516L87.8357 261.769L87.2225 263.681L85.2169 263.678L86.845 264.842L86.2345 266.728Z" fill="#FFF200"/>
<path d="M81.7814 255.728L81.1682 257.64L79.1626 257.638L80.788 258.804L80.1775 260.692L81.7841 259.523L83.3827 260.692L82.7748 258.804L84.4029 257.638H82.3946L81.7814 255.728Z" fill="#FFF200"/>
</g>
<defs>
<clipPath id="clip0_35_235">
<rect width="79.8846" height="67" fill="white" transform="translate(34 232)"/>
</clipPath>
</defs>
</svg>
