<svg xmlns="http://www.w3.org/2000/svg" width="28" height="32"><path fill="#fff" d="M25.333 10.145c.015-.031.025-.048.032-.066.486-1.216.892-2.457 1.131-3.748.147-.795.229-1.595.142-2.405a3.94 3.94 0 00-.246-1.037c-.028-.071-.079-.103-.143-.085-.109.029-.213.074-.309.109.081.194.166.362.224.54.194.59.197 1.199.144 1.81-.066.75-.241 1.478-.471 2.192a15.849 15.849 0 01-.797 1.981c-.016.033-.034.081-.02.107.099.198.205.393.315.6zm-1.261-2.051c.012-.024.022-.04.029-.057.336-.817.609-1.653.742-2.53.067-.443.095-.888.023-1.334-.008-.047-.021-.093-.035-.153l-.065.08c-.659.855-1.215 1.774-1.722 2.725-.025.048-.013.072.018.109.32.366.637.734.956 1.101l.054.06zM2.199 2.816c-.09-.025-.179-.057-.271-.073-.108-.019-.166.023-.208.124-.228.559-.29 1.146-.283 1.742.009.725.123 1.437.288 2.141a20.242 20.242 0 001.122 3.338c.009.022.022.043.038.075.019-.034.034-.057.046-.081.115-.215.228-.432.346-.646.029-.053.029-.092.004-.147-.239-.529-.494-1.052-.706-1.592-.405-1.031-.7-2.092-.726-3.211-.01-.432.028-.859.176-1.269.047-.131.11-.256.173-.402zm2.039 5.169c.015-.013.025-.019.032-.027.341-.385.682-.769 1.02-1.156.016-.019.017-.068.004-.092-.141-.26-.24-.429-.342-.597l.044.078c-.474-.795-.984-1.565-1.578-2.276-.022-.027-.046-.053-.086-.097-.017.107-.035.192-.044.277-.05.478.015.948.11 1.414.152.742.401 1.454.696 2.15.046.108.094.215.143.327zm12.561-4.542c0-.014.002-.021 0-.025-.012-.028-.022-.048-.032-.068l.003.007a2.575 2.575 0 00-.896-.999c-.815-.536-1.703-.671-2.644-.444-.724.175-1.319.559-1.745 1.18-.079.115-.141.242-.21.363 1.852-.4 3.686-.41 5.524-.015zm3.192 1.177c.686.368 1.326.791 1.926 1.27l.019-.02.249-.45c.497-.883 1.031-1.741 1.685-2.517.397-.471.829-.902 1.367-1.215.011-.007.026-.008.039-.012a.24.24 0 00-.063-.042c-.422-.179-.854-.167-1.289-.059-.567.141-1.07.417-1.545.749-.836.584-1.544 1.304-2.204 2.075-.06.07-.118.141-.185.221zM8.478 4.496c-.017-.022-.026-.036-.037-.048a13.89 13.89 0 00-1.895-1.806c-.518-.4-1.066-.75-1.682-.981-.487-.183-.986-.29-1.509-.193-.14.026-.275.074-.413.112l.003.027c.038.022.077.044.114.067l.122.076c.605.396 1.092.916 1.54 1.474.614.764 1.136 1.59 1.622 2.439l.081.138a12.73 12.73 0 012.053-1.305zm5.633 26.075c2.423 0 4.847-.001 7.27.001.405 0 .801-.049 1.187-.174a3.69 3.69 0 002.582-3.552V15.578c0-.832-.088-1.654-.276-2.465-.402-1.737-1.173-3.293-2.339-4.641-2.003-2.316-4.54-3.602-7.59-3.865a10.58 10.58 0 00-2.438.083c-.951.139-1.871.39-2.753.778a11.067 11.067 0 00-4.466 3.503c-1.465 1.962-2.205 4.167-2.207 6.617-.002 3.75-.001 7.501.002 11.251 0 .224.015.451.054.671.186 1.045.73 1.861 1.609 2.45.632.423 1.334.613 2.094.612 2.423-.003 4.847-.001 7.27-.001zM21.676 32H6.562c-.17-.018-.341-.031-.51-.056-1.037-.155-1.953-.575-2.723-1.287-1.111-1.026-1.673-2.302-1.674-3.818-.002-3.756-.003-7.511.002-11.267.001-.46.028-.922.072-1.38.069-.702.209-1.393.41-2.07a.248.248 0 00-.019-.199A24 24 0 01.839 8.839C.435 7.636.124 6.411.029 5.14.021 5.029.01 4.918 0 4.806v-.59c.005-.033.011-.065.015-.098.041-.325.061-.655.126-.975C.337 2.181.79 1.368 1.577.759A3.424 3.424 0 013.343.032c.134-.014.268-.022.402-.033h.067c.033.005.066.014.099.015.416.015.818.101 1.212.232.765.254 1.45.658 2.096 1.134a15.109 15.109 0 012.398 2.242l.091.102c.011-.04.02-.066.026-.092A3.718 3.718 0 0110.7 1.8C11.548.907 12.604.456 13.824.394c1.017-.051 1.964.194 2.814.762.939.628 1.552 1.484 1.752 2.61.021.116.063.174.174.208.073.022.106.011.153-.045.23-.277.458-.556.7-.822.731-.803 1.522-1.539 2.439-2.129.657-.423 1.355-.749 2.138-.864.915-.135 1.746.067 2.489.619.739.55 1.182 1.295 1.418 2.173.225.837.239 1.688.162 2.544a13.947 13.947 0 01-.392 2.203 23.807 23.807 0 01-1.563 4.306.218.218 0 00-.014.168 12.32 12.32 0 01.486 3.45c.002 3.756.001 7.512 0 11.268a5.04 5.04 0 01-.333 1.846 5.093 5.093 0 01-2.343 2.677 4.905 4.905 0 01-1.791.581c-.145.018-.29.033-.434.05z"/><path fill="#fff" d="M15.069 28.58H20.275c.073 0 .147.002.219-.006a1.81 1.81 0 001.637-1.812c.002-2.325.001-4.65-.001-6.975 0-.131-.013-.265-.042-.393-.19-.855-.919-1.429-1.813-1.429-3.953-.001-7.905 0-11.858.001a1.811 1.811 0 00-1.856 1.82c-.001 2.325-.001 4.65.001 6.975 0 .131.013.265.041.393.188.85.913 1.424 1.797 1.425 1.712.002 3.424 0 5.136 0h.095c0-.172.004-.332-.001-.492a.876.876 0 01.109-.477h-.116c-.711 0-1.423.005-2.134-.003a3.424 3.424 0 01-.678-.065c-1.27-.28-2.128-1.038-2.506-2.284-.274-.904-.492-1.826-.729-2.741-.094-.363-.202-.727-.252-1.098a2.572 2.572 0 01.484-1.905c.569-.786 1.354-1.171 2.32-1.172 2.811-.004 5.623-.002 8.434 0 .14 0 .281.011.42.028a2.758 2.758 0 012.327 3.405c-.238.944-.491 1.884-.742 2.825-.088.33-.165.667-.293.983-.505 1.242-1.692 2.024-3.046 2.027-.723.002-1.445 0-2.168 0h-.109c.177.313.078.641.116.968zm-.713-8.812c-1.425 0-2.85-.002-4.275.001a1.344 1.344 0 00-1.306 1.703c.287 1.088.581 2.174.855 3.265a1.897 1.897 0 001.877 1.453c1.892-.012 3.783-.003 5.675-.005.134 0 .271-.004.402-.032.769-.165 1.262-.63 1.465-1.39.293-1.098.58-2.197.869-3.296a1.344 1.344 0 00-1.305-1.697c-1.419-.002-2.839 0-4.258 0zm-.003-3.222c1.971 0 3.941.002 5.912-.001.773-.001 1.468.222 2.071.706a3.139 3.139 0 011.195 2.134c.018.142.026.286.027.429.002 2.308.002 4.616.001 6.924-.001 1.443-.875 2.654-2.241 3.11-.33.11-.672.159-1.019.159-3.97.001-7.939.003-11.909-.001a3.231 3.231 0 01-3.256-3.265c-.001-2.311-.002-4.622 0-6.933.001-1.511.981-2.782 2.43-3.161.287-.075.58-.102.876-.102l5.912.001zm-.299-11.469c2.4.031 4.512.821 6.301 2.427 1.511 1.357 2.476 3.042 2.901 5.03.122.547.192 1.175.192 1.82v.075-.004a.706.706 0 01-.61.705c-.383.043-.712-.18-.795-.546a1.053 1.053 0 01-.021-.218 7.745 7.745 0 00-1.144-4.025 7.93 7.93 0 00-2.79-2.745 7.883 7.883 0 00-2.798-1 8.018 8.018 0 00-2-.058 7.581 7.581 0 00-2.994.902c-2.131 1.177-3.49 2.947-4.04 5.327a7.852 7.852 0 00-.18 1.639c-.006.363-.212.628-.543.711a.702.702 0 01-.876-.648 8.153 8.153 0 01.132-1.635 9.07 9.07 0 011.723-3.981C7.881 7.047 9.67 5.87 11.875 5.332a9.274 9.274 0 012.18-.257z"/></svg>